<?xml version="1.0" encoding="UTF-8" standalone="no"?>
<svg
   xmlns:dc="http://purl.org/dc/elements/1.1/"
   xmlns:cc="http://creativecommons.org/ns#"
   xmlns:rdf="http://www.w3.org/1999/02/22-rdf-syntax-ns#"
   xmlns:svg="http://www.w3.org/2000/svg"
   xmlns="http://www.w3.org/2000/svg"
   xmlns:xlink="http://www.w3.org/1999/xlink"
   xmlns:sodipodi="http://sodipodi.sourceforge.net/DTD/sodipodi-0.dtd"
   xmlns:inkscape="http://www.inkscape.org/namespaces/inkscape"
   id="Layer_1"
   viewBox="0 0 2037 2037"
   width="2037"
   height="2037"
   version="1.1"
   sodipodi:docname="brave-nightly.svg"
   inkscape:version="0.92.4 5da689c313, 2019-01-14">
  <metadata
     id="metadata36">
    <rdf:RDF>
      <cc:Work
         rdf:about="">
        <dc:format>image/svg+xml</dc:format>
        <dc:type
           rdf:resource="http://purl.org/dc/dcmitype/StillImage" />
        <dc:title>brave_logo_horz</dc:title>
      </cc:Work>
    </rdf:RDF>
  </metadata>
  <defs
     id="defs34">
    <linearGradient
       inkscape:collect="always"
       id="linearGradient972">
      <stop
         style="stop-color:#1b0098;stop-opacity:1"
         offset="0"
         id="stop968" />
      <stop
         style="stop-color:#ec6a00;stop-opacity:0;"
         offset="1"
         id="stop970" />
    </linearGradient>
    <linearGradient
       inkscape:collect="always"
       id="linearGradient932">
      <stop
         style="stop-color:#0073e2;stop-opacity:1"
         offset="0"
         id="stop928" />
      <stop
         style="stop-color:#a400d3;stop-opacity:1"
         offset="1"
         id="stop930" />
    </linearGradient>
    <linearGradient
       inkscape:collect="always"
       xlink:href="#linearGradient932"
       id="linearGradient966"
       gradientUnits="userSpaceOnUse"
       x1="836.909"
       y1="294.44315"
       x2="1081.9313"
       y2="1087.9"
       gradientTransform="matrix(1.02,0,0,1.02,-20.918607,-20.275443)" />
    <linearGradient
       inkscape:collect="always"
       xlink:href="#linearGradient972"
       id="linearGradient974"
       x1="1070.5836"
       y1="1543.9791"
       x2="1027.6667"
       y2="68.29538"
       gradientUnits="userSpaceOnUse"
       gradientTransform="matrix(1.02,0,0,1.02,-20.918607,-20.275443)" />
  </defs>
  <sodipodi:namedview
     pagecolor="#ffffff"
     bordercolor="#666666"
     borderopacity="1"
     objecttolerance="10"
     gridtolerance="10"
     guidetolerance="10"
     inkscape:pageopacity="0"
     inkscape:pageshadow="2"
     inkscape:window-width="1366"
     inkscape:window-height="720"
     id="namedview32"
     showgrid="false"
     inkscape:zoom="0.1565376"
     inkscape:cx="208.36173"
     inkscape:cy="632.97971"
     inkscape:window-x="0"
     inkscape:window-y="24"
     inkscape:window-maximized="1"
     inkscape:current-layer="Layer_1"
     inkscape:pagecheckerboard="true" />
  <style
     id="style2">.st0{fill:url(#SVGID_1_)}.st1{fill:#fff}.st2{fill:#676767}</style>
  <title
     id="title4">brave_logo_horz</title>
  <linearGradient
     id="SVGID_1_"
     gradientUnits="userSpaceOnUse"
     x1="868.24597"
     y1="2037.533"
     x2="868.24597"
     y2="0.54000002"
     gradientTransform="matrix(1,0,0,-1,177.68132,2037.533)">
    <stop
       offset="0"
       stop-color="#f9ba16"
       id="stop6" />
    <stop
       offset=".04"
       stop-color="#faa612"
       id="stop8" />
    <stop
       offset=".11"
       stop-color="#fc8b0c"
       id="stop10" />
    <stop
       offset=".19"
       stop-color="#fd7508"
       id="stop12" />
    <stop
       offset=".28"
       stop-color="#fe6404"
       id="stop14" />
    <stop
       offset=".4"
       stop-color="#ff5902"
       id="stop16" />
    <stop
       offset=".56"
       stop-color="#ff5200"
       id="stop18" />
    <stop
       offset="1"
       stop-color="#ff5000"
       id="stop20" />
  </linearGradient>
  <path
     class="st0"
     d="m 1931.2913,663.19111 -151.164,-249.75251 17.952,-80.84531 -137.598,-133.60442 -114.138,15.0183 -184.824,-193.482613 h -316.2 l -316.19996,2.438037 -184.416,193.092536 -114.138,-15.70096 -136.782,135.06725 17.544,80.45522 -150.756,248.77729 41.31,149.69548 187.68,683.23549 c 21.828,78.6023 71.604,147.55 140.862,194.8479 0,0 228.378,153.8889 453.39,293.5397 36.71996,27.9886 88.84196,27.9886 125.56196,0 252.858,-158.4725 452.982,-294.2223 452.982,-294.2223 69.054,-47.3954 118.83,-116.2456 140.556,-194.848 l 186.966,-683.62553 z"
     id="path23"
     inkscape:connector-curvature="0"
     style="fill:url(#linearGradient966);fill-opacity:1;stroke:url(#linearGradient974);stroke-width:40.79999924;stroke-miterlimit:4;stroke-dasharray:none;stroke-opacity:1" />
  <path
     class="st1"
     d="m 1094.3813,1258.0906 c -11.832,-5.406 -24.072,-9.894 -36.618,-13.566 h -22.644 c -12.546,3.57 -24.786,8.16 -36.61796,13.566 l -55.998,23.46 c -17.952,7.344 -46.104,20.808 -63.342,29.682 l -103.122,53.652 c -10.404,3.366 -16.116,14.484 -12.75,24.888 1.632,5.1 5.304,9.384 10.2,11.73 l 89.25,63.342 c 15.708,11.016 40.596,30.396 54.876,43.146 l 25.296,21.624 52.734,46.104 23.76596,21.216 c 15.198,12.75 37.434,12.75 52.734,0 l 24.786,-21.93 52.734,-46.104 25.296,-21.93 c 14.586,-12.852 39.168,-32.232 54.876,-43.146 l 89.658,-64.056 c 9.894,-4.182 14.484,-15.606 10.302,-25.398 -2.346,-5.508 -7.038,-9.588 -12.852,-11.118 l -104.244,-52.326 c -17.238,-8.772 -45.696,-21.93 -63.648,-29.274 z"
     id="path25"
     inkscape:connector-curvature="0"
     style="fill:#ffffff;stroke:#ce0062;stroke-width:18.36000061;stroke-miterlimit:4;stroke-dasharray:none;stroke-opacity:0.66666667" />
  <path
     class="st1"
     d="m 1728.2093,732.99456 2.958,-9.18 c 0.102,-12.24 -0.816,-24.48 -2.55,-36.618 -8.67,-22.032 -19.89,-43.044 -33.252,-62.526 l -57.834,-85.272 c -10.608,-16.116 -29.274,-41.31 -41.31,-56.304 l -77.622,-96.594 c -7.038,-9.486 -14.79,-18.564 -23.052,-27.03 l -34.374,6.222 -121.074,20.808 -51.918,9.894 c -17.34,0.918 -34.782,-1.632 -51.204,-7.344 l -94.044,-30.396 c -18.258,-5.814 -48.654,-14.28 -67.32,-18.666 -9.894,-1.02 -19.788,-1.02 -29.682,0 -9.894,-1.02 -19.788,-1.02 -29.682,0 -18.66596,4.386 -49.06196,12.852 -67.31996,18.666 l -94.044,30.396 c -16.422,5.712 -33.864,8.16 -51.204,7.344 l -52.326,-9.894 -119.34,-23.052 -34.374,-6.222 c -8.262,8.466 -16.014,17.544 -23.052,27.03 l -79.356,98.838 c -12.036,14.994 -30.702,40.29 -41.31,56.304 l -57.834,85.578 c -9.996,14.688 -19.176,29.988 -27.438,45.696 -5.1,17.646 -7.752,35.802 -8.058,54.162 l 3.264,9.18 c 1.428,6.018 3.264,11.832 5.508,17.544 14.79,17.85 30.702,34.884 47.532,50.898 l 200.532,185.538 c 14.178,15.50404 17.952,37.74004 9.894,57.12004 l -33.252,79.05 c -7.038,21.114 -7.038,43.962 0,65.178 l 6.63,18.258 c 10.914,29.784 29.58,56.1 54.162,76.092 l 31.824,26.01 c 16.932,12.342 39.168,14.994 58.548,6.936 l 113.832,-54.162 c 20.604,-10.506 39.882,-23.358 57.426,-38.454 l 91.08596,-82.314 c 14.994,-13.566 16.014,-36.72 2.448,-51.714 l -0.612,-0.612 -157.28396,-135.04804 c -14.79,-14.484 -19.686,-36.21 -12.444,-55.59 l 52.326,-129.54 c 7.038,-19.788 7.038,-41.31 0,-61.098 -9.792,-18.768 -25.806,-33.558 -45.39,-41.718 l -249.9,-94.452 c -17.952,-6.936 -17.238,-13.872 2.244,-15.708 l 129.54,-12.036 c 22.848,-1.326 45.798,1.53 67.728,8.466 l 129.132,46.104 c 18.36,7.14 29.07,26.418 25.296,45.696 l -47.226,206.346 c -4.386,18.666 -8.772,39.474 -10.2,46.104 6.426,11.526 18.666,18.666 31.824,18.666 l 90.06596,17.544 c 22.644,3.774 45.798,3.774 68.442,0 l 82.314,-17.238 c 13.26,-0.102 25.5,-7.344 31.824,-19.074 0,-6.63 -5.814,-27.03 -10.2,-45.696 l -47.94,-206.754 c -3.978,-19.38 6.732,-38.76 25.296,-45.696 l 129.132,-46.104 c 21.828,-6.936 44.778,-9.792 67.728,-8.466 l 129.54,12.036 c 19.074,0 20.094,8.772 2.244,15.708 l -249.594,94.758 c -19.38,7.956 -35.496,22.44 -45.39,41.004 -7.038,19.788 -7.038,41.31 0,61.098 l 54.162,129.948 c 6.834,19.38 1.734,41.004 -13.158,55.284 l -156.876,135.45604 c -13.974,14.586 -13.464,37.74 1.224,51.714 l 0.612,0.612 91.494,81.192 c 17.646,14.382 36.924,26.724 57.426,36.618 l 113.832,54.162 c 19.38,8.058 41.616,5.406 58.548,-6.936 l 31.824,-26.01 c 24.582,-20.094 43.248,-46.308 54.162,-76.092 l 6.63,-18.258 c 7.038,-21.114 7.038,-43.962 0,-65.178 l -35.088,-76.092 c -7.038,-19.482 -2.346,-41.208 12.036,-55.99804 l 200.124,-185.844 c 16.83,-16.116 32.742,-33.252 47.532,-51.204 2.244,-6.222 3.978,-12.648 5.202,-19.074 z"
     id="path27"
     inkscape:connector-curvature="0"
     style="fill:#ffffff;fill-opacity:1;stroke:#ce0062;stroke-width:18.36000061;stroke-miterlimit:4;stroke-dasharray:none;stroke-opacity:0.66666667" />
</svg>
