<?xml version="1.0" encoding="UTF-8" standalone="no"?>
<!-- Created with Inkscape (http://www.inkscape.org/) -->

<svg
   xmlns:dc="http://purl.org/dc/elements/1.1/"
   xmlns:cc="http://creativecommons.org/ns#"
   xmlns:rdf="http://www.w3.org/1999/02/22-rdf-syntax-ns#"
   xmlns:svg="http://www.w3.org/2000/svg"
   xmlns="http://www.w3.org/2000/svg"
   xmlns:sodipodi="http://sodipodi.sourceforge.net/DTD/sodipodi-0.dtd"
   xmlns:inkscape="http://www.inkscape.org/namespaces/inkscape"
   width="64px"
   height="64px"
   viewBox="0 0 64 64"
   version="1.1"
   id="SVGRoot"
   sodipodi:docname="libreoffice-writer.svg"
   inkscape:version="0.92.1 r">
  <sodipodi:namedview
     id="base"
     pagecolor="#ffffff"
     bordercolor="#666666"
     borderopacity="1.0"
     inkscape:pageopacity="0.0"
     inkscape:pageshadow="2"
     inkscape:zoom="5.6568542"
     inkscape:cx="17.80356"
     inkscape:cy="31.773422"
     inkscape:document-units="px"
     inkscape:current-layer="layer1"
     showgrid="false"
     inkscape:window-width="1366"
     inkscape:window-height="744"
     inkscape:window-x="0"
     inkscape:window-y="24"
     inkscape:window-maximized="1"
     inkscape:grid-bbox="true"
     inkscape:pagecheckerboard="true">
    <inkscape:grid
       type="xygrid"
       id="grid1515" />
  </sodipodi:namedview>
  <defs
     id="defs904">
    <inkscape:path-effect
       effect="bspline"
       id="path-effect1509"
       is_visible="true"
       weight="33.333333"
       steps="2"
       helper_size="0"
       apply_no_weight="true"
       apply_with_weight="true"
       only_selected="false" />
    <inkscape:path-effect
       effect="bspline"
       id="path-effect1505"
       is_visible="true"
       weight="33.333333"
       steps="2"
       helper_size="0"
       apply_no_weight="true"
       apply_with_weight="true"
       only_selected="false" />
    <inkscape:path-effect
       effect="bspline"
       id="path-effect1505-5"
       is_visible="true"
       weight="33.333333"
       steps="2"
       helper_size="0"
       apply_no_weight="true"
       apply_with_weight="true"
       only_selected="false" />
    <inkscape:path-effect
       effect="bspline"
       id="path-effect1509-6"
       is_visible="true"
       weight="33.333333"
       steps="2"
       helper_size="0"
       apply_no_weight="true"
       apply_with_weight="true"
       only_selected="false" />
  </defs>
  <metadata
     id="metadata907">
    <rdf:RDF>
      <cc:Work
         rdf:about="">
        <dc:format>image/svg+xml</dc:format>
        <dc:type
           rdf:resource="http://purl.org/dc/dcmitype/StillImage" />
        <dc:title />
      </cc:Work>
    </rdf:RDF>
  </metadata>
  <g
     id="layer1"
     inkscape:groupmode="layer"
     inkscape:label="Layer 1">
    <circle
       style="opacity:1;fill:#3366cc;fill-opacity:1;fill-rule:nonzero;stroke:#ffffff;stroke-width:0.715;stroke-miterlimit:4;stroke-dasharray:none;stroke-dashoffset:0;stroke-opacity:0.7098214;paint-order:fill markers stroke"
       id="path18"
       cx="29.617672"
       cy="36.577847"
       r="24.045485" />
    <ellipse
       style="opacity:1;fill:#ffffff;fill-opacity:0.17289722;fill-rule:nonzero;stroke:#ffffff;stroke-width:0.07623998;stroke-miterlimit:4;stroke-dasharray:none;stroke-dashoffset:0;stroke-opacity:0;paint-order:fill markers stroke"
       id="path18-3"
       cx="29.698092"
       cy="26.669394"
       rx="19.139605"
       ry="13.226986" />
    <ellipse
       style="opacity:1;fill:#000000;fill-opacity:1;fill-rule:nonzero;stroke:#b2b2b2;stroke-width:0.13682178;stroke-miterlimit:4;stroke-dasharray:none;stroke-dashoffset:0;stroke-opacity:0;paint-order:fill markers stroke"
       id="path20"
       cx="30.203135"
       cy="16.919945"
       rx="13.291202"
       ry="7.5987577" />
    <ellipse
       style="opacity:1;fill:#ffffff;fill-opacity:1;fill-rule:nonzero;stroke:#b2b2b2;stroke-width:0.1015831;stroke-miterlimit:4;stroke-dasharray:none;stroke-dashoffset:0;stroke-opacity:0;paint-order:fill markers stroke"
       id="path24"
       cx="30.259069"
       cy="13.888249"
       rx="12.82777"
       ry="6.9749742" />
    <ellipse
       style="opacity:1;fill:#4d4d4d;fill-opacity:1;fill-rule:nonzero;stroke:#b2b2b2;stroke-width:0.12079258;stroke-miterlimit:4;stroke-dasharray:none;stroke-dashoffset:0;stroke-opacity:0;paint-order:fill markers stroke"
       id="path836"
       cx="30.111549"
       cy="13.42113"
       rx="10.534923"
       ry="4.7522893" />
    <path
       id="path1503-9"
       style="fill:#000000;stroke:none;stroke-width:0.11384033;stroke-linecap:butt;stroke-linejoin:miter;stroke-miterlimit:4;stroke-dasharray:none;stroke-opacity:0.61214953;fill-opacity:0.3482143"
       inkscape:path-effect="#path-effect1505-5"
       inkscape:original-d="m 18.578251,64.455709 c 0,0 19.083003,-28.621725 28.623427,-42.931021 1.158588,-1.19162 2.353813,-2.420607 3.529643,-3.629343 -0.869518,1.682601 -1.738962,3.364727 -2.610699,5.050936 -8.002639,11.972063 -15.990799,23.922433 -23.988352,35.886831 -0.684828,0.30532 -1.369903,0.611465 -2.056444,0.918992 -1.165731,1.56762 -3.497575,4.703605 -3.497575,4.703605 z m 7.161633,-11.301174 c -0.09673,-2.420605 -0.19428,-4.8401 -0.292618,-7.258482 2.292701,-4.160181 6.877147,-12.479818 6.877147,-12.479818 0,0 -1.374071,5.582367 -2.062309,8.375215 0.68836,-2.793343 1.375676,-5.584589 2.062309,-8.375215 2.282175,-3.777445 6.846082,-11.332253 6.846082,-11.332253 0,0 -0.800436,4.466848 -1.201862,6.701943 2.978761,-4.395909 8.930966,-13.180112 8.930966,-13.180112 0,0 0.909502,1.227503 1.363049,1.84292 2.373209,-2.959747 4.7418,-5.913634 7.111499,-8.868785 1.168683,-0.4656775 3.503638,-1.3936957 3.503638,-1.3936957 l -2.691717,4.4130587 c 0,0 1.139505,-1.023649 1.708051,-1.53381 1.084359,-1.5026465 3.250663,-4.5046021 3.250663,-4.5046021 0,0 -2.909191,8.5858691 -4.364994,12.8804701 -2.80642,2.730696 -5.613644,5.462499 -8.421669,8.195411 2.890485,-2.409353 8.667068,-7.223083 8.667068,-7.223083 0,0 -1.638634,4.797634 -2.459154,7.198119 -2.338325,2.359125 -4.674386,4.71627 -7.014725,7.078035 -2.615947,2.2594 -5.229796,4.517403 -7.8459,6.777772 2.838899,-1.624577 8.604946,-4.92796 8.604946,-4.92796 0,0 -2.960954,3.680818 -4.442639,5.522893 -2.992478,2.849186 -5.982256,5.696146 -8.974592,8.545886 -3.149822,2.146362 -6.298504,4.292514 -9.448961,6.440436 0.09939,-0.966126 0.197951,-1.93067 0.295718,-2.894342 z"
       d="m 18.578251,64.455709 c 9.541142,-14.31034 19.082988,-28.621735 24.432578,-36.372114 5.34959,-7.750378 6.544815,-8.979365 6.697826,-8.742543 0.15301,0.236823 -0.716437,1.918947 -5.153561,8.748115 -4.437125,6.829168 -12.425283,18.779539 -16.766334,24.914701 -4.34105,6.135163 -5.026124,6.441311 -5.952376,7.378597 -0.926252,0.937286 -2.092275,2.505376 -3.258133,4.073244 z M 25.691093,51.94425 c -0.04879,-1.210286 -0.146331,-3.629781 0.9512,-6.919119 1.097532,-3.289337 3.389738,-7.448957 5.68212,-11.608896 -0.687436,2.791738 -1.374569,5.582244 -1.374508,5.581997 6.1e-5,-2.48e-4 0.687376,-2.791494 2.171981,-6.075497 1.484606,-3.284003 3.766582,-7.061335 6.048609,-10.838753 -0.400621,2.233981 -0.801023,4.466743 0.48792,3.386376 1.288943,-1.080366 4.264195,-5.471174 7.241184,-9.864545 0.45435,0.614307 0.908452,1.228279 2.322381,0.05575 1.413929,-1.172532 3.782523,-4.126417 5.551822,-5.8365112 1.7693,-1.710094 2.936104,-2.1742313 4.103983,-2.6387965 0,0 -2.691717,4.4130587 -2.691717,4.4130587 0.56935,-0.51127 1.139697,-1.023435 1.966053,-2.0299462 0.826356,-1.0065112 1.909107,-2.5069319 2.992661,-4.0084659 -1.454998,4.29349 -2.909575,8.5857391 -5.040413,12.0985361 -2.130838,3.512798 -4.938061,6.244601 -4.896805,6.406427 0.04126,0.161825 2.9286,-2.244471 5.817623,-4.652165 -0.819718,2.399373 -1.639012,4.797505 -3.218169,7.17745 -1.579158,2.379945 -3.915219,4.73709 -6.393335,7.047716 -2.478116,2.310626 -5.091965,4.56863 -4.980936,4.885943 0.11103,0.317314 3.009292,-1.34249 5.877607,-2.985143 -1.48088,1.840964 -2.960901,3.680861 -5.197923,6.02656 -2.237022,2.3457 -5.2268,5.19266 -8.297834,7.690813 -3.071033,2.498154 -6.219716,4.644304 -7.745717,5.234976 -1.526001,0.590671 -1.427452,-0.373874 -1.378226,-0.855675 0.04923,-0.481801 0.04923,-0.481802 4.39e-4,-1.692087 z"
       inkscape:connector-curvature="0" />
    <path
       style="fill:#333333;stroke:none;stroke-width:0.69393885px;stroke-linecap:butt;stroke-linejoin:miter;stroke-opacity:1"
       d="m 25.645692,50.78253 c -0.04848,-1.322665 -0.145397,-3.966817 0.945126,-7.561568 1.090523,-3.594751 3.368105,-8.140613 5.645855,-12.686812 -0.683048,3.050958 -1.3658,6.100591 -1.365739,6.100321 6.1e-5,-2.71e-4 0.682988,-3.05069 2.158118,-6.639628 1.475129,-3.588937 3.742544,-7.71701 6.010005,-11.845169 -0.398063,2.441411 -0.795912,4.881508 0.484805,3.700819 1.280716,-1.180689 4.23698,-5.979196 7.194967,-10.780501 0.451449,0.671346 0.902585,1.342227 2.307525,0.06087 1.40494,-1.2813572 3.758416,-4.5095165 5.516444,-6.3784042 1.758029,-1.8688878 2.917337,-2.3761002 4.077762,-2.8838013 0,0 -2.674537,4.8228211 -2.674537,4.8228211 C 56.51174,6.1327349 57.078468,5.5729939 57.899539,4.4730366 58.720609,3.3730793 59.79645,1.7333399 60.873088,0.09238516 59.427377,4.7845351 57.982077,9.4753517 55.864851,13.3143 c -2.117225,3.838948 -4.906532,6.824408 -4.865534,7.001255 0.041,0.176848 2.909887,-2.452855 5.78047,-5.084109 -0.814486,2.62216 -1.628558,5.242986 -3.197625,7.843895 -1.569068,2.60091 -3.890218,5.17692 -6.352512,7.702091 -2.462294,2.52517 -5.05946,4.992836 -4.949189,5.339648 0.11027,0.346811 2.990111,-1.467158 5.840118,-3.262335 -1.471427,2.011902 -2.941997,4.022632 -5.164734,6.586128 -2.222737,2.563496 -5.193431,5.674802 -8.244855,8.40491 -3.051423,2.730108 -6.180009,5.075534 -7.696288,5.72107 -1.516278,0.645537 -1.418359,-0.408568 -1.369446,-0.935111 0.04891,-0.526544 0.04892,-0.526546 4.36e-4,-1.849212 z"
       id="path1507"
       inkscape:connector-curvature="0"
       inkscape:path-effect="#path-effect1509"
       inkscape:original-d="m 25.694172,52.105196 c -0.09612,-2.645362 -0.193039,-5.289514 -0.29075,-7.932449 2.278068,-4.546461 6.833251,-13.638597 6.833251,-13.638597 0,0 -1.3653,6.100703 -2.049144,9.152873 0.683965,-3.052711 1.366894,-6.10313 2.049144,-9.152873 2.267608,-4.128189 6.802384,-12.384476 6.802384,-12.384476 0,0 -0.795324,4.881604 -1.194189,7.324232 2.959747,-4.804079 8.873961,-14.403914 8.873961,-14.403914 0,0 0.903696,1.34148 1.354348,2.014039 C 50.431239,9.8494646 52.784713,6.6213042 55.139285,3.3917599 56.300509,2.882843 58.62056,1.8686565 58.62056,1.8686565 l -2.674537,4.8228211 c 0,0 1.132233,-1.1186982 1.697151,-1.6762281 1.077436,-1.6421698 3.229914,-4.92286434 3.229914,-4.92286434 0,0 -2.890623,9.38308614 -4.337133,14.07644984 -2.788507,2.984247 -5.577814,5.969706 -8.367916,8.956374 2.872035,-2.633068 8.611748,-7.893763 8.611748,-7.893763 0,0 -1.628175,5.243105 -2.443458,7.86648 -2.323399,2.578177 -4.64455,5.154187 -6.969951,7.735246 -2.59925,2.46919 -5.196416,4.936856 -7.79582,7.407105 2.820779,-1.775424 8.550021,-5.385532 8.550021,-5.385532 0,0 -2.942055,4.02259 -4.414281,6.035705 -2.973379,3.113738 -5.944073,6.225045 -8.917309,9.33939 -3.129718,2.345656 -6.258302,4.691084 -9.388651,7.038444 0.09875,-1.055832 0.196689,-2.109935 0.29383,-3.163086 z"
       sodipodi:nodetypes="ccccccccccccscscccccccccc" />
    <path
       style="fill:#999999;stroke:none;stroke-width:0.11862778;stroke-linecap:butt;stroke-linejoin:miter;stroke-miterlimit:4;stroke-dasharray:none;stroke-opacity:0.61214953"
       d="m 18.578251,64.455709 c 9.480243,-15.639087 18.961183,-31.279325 24.276635,-39.749353 5.315452,-8.470028 6.503048,-9.813127 6.655072,-9.554302 0.152024,0.258825 -0.711873,2.097139 -5.120673,9.560406 -4.408801,7.463267 -12.345973,20.523255 -16.659292,27.22807 -4.31332,6.704814 -4.994019,7.039388 -5.914381,8.063712 -0.920362,1.024325 -2.078944,2.738018 -3.237361,4.451467 z"
       id="path1503"
       inkscape:connector-curvature="0"
       inkscape:path-effect="#path-effect1505"
       inkscape:original-d="m 18.578251,64.455709 c 0,0 18.961199,-31.279315 28.440728,-46.917262 1.151194,-1.302265 2.338789,-2.645364 3.507114,-3.966336 -0.863968,1.838835 -1.727862,3.677151 -2.594035,5.519929 -7.95156,13.083695 -15.888733,26.143683 -23.835239,39.219002 -0.680457,0.333668 -1.361158,0.66824 -2.043317,1.004321 -1.15829,1.713178 -3.475251,5.140346 -3.475251,5.140346 z"
       sodipodi:nodetypes="ccccccc" />
  </g>
</svg>
