<?xml version="1.0" encoding="UTF-8" standalone="no"?>
<!-- Created with Inkscape (http://www.inkscape.org/) -->

<svg
   xmlns:dc="http://purl.org/dc/elements/1.1/"
   xmlns:cc="http://creativecommons.org/ns#"
   xmlns:rdf="http://www.w3.org/1999/02/22-rdf-syntax-ns#"
   xmlns:svg="http://www.w3.org/2000/svg"
   xmlns="http://www.w3.org/2000/svg"
   xmlns:sodipodi="http://sodipodi.sourceforge.net/DTD/sodipodi-0.dtd"
   xmlns:inkscape="http://www.inkscape.org/namespaces/inkscape"
   width="64px"
   height="64px"
   viewBox="0 0 64 64"
   version="1.1"
   id="SVGRoot"
   sodipodi:docname="libreoffice-writer.svg"
   inkscape:version="0.92.2 5c3e80d, 2017-08-06">
  <sodipodi:namedview
     id="base"
     pagecolor="#ffffff"
     bordercolor="#666666"
     borderopacity="1.0"
     inkscape:pageopacity="0.0"
     inkscape:pageshadow="2"
     inkscape:zoom="5.6568542"
     inkscape:cx="-6.019291"
     inkscape:cy="25.848386"
     inkscape:document-units="px"
     inkscape:current-layer="layer1"
     showgrid="false"
     inkscape:window-width="1366"
     inkscape:window-height="703"
     inkscape:window-x="0"
     inkscape:window-y="0"
     inkscape:window-maximized="1"
     inkscape:grid-bbox="true"
     inkscape:pagecheckerboard="true">
    <inkscape:grid
       type="xygrid"
       id="grid1515" />
  </sodipodi:namedview>
  <defs
     id="defs904">
    <inkscape:path-effect
       effect="bspline"
       id="path-effect1509"
       is_visible="true"
       weight="33.333333"
       steps="2"
       helper_size="0"
       apply_no_weight="true"
       apply_with_weight="true"
       only_selected="false" />
    <inkscape:path-effect
       effect="bspline"
       id="path-effect1505"
       is_visible="true"
       weight="33.333333"
       steps="2"
       helper_size="0"
       apply_no_weight="true"
       apply_with_weight="true"
       only_selected="false" />
    <inkscape:path-effect
       effect="bspline"
       id="path-effect1505-5"
       is_visible="true"
       weight="33.333333"
       steps="2"
       helper_size="0"
       apply_no_weight="true"
       apply_with_weight="true"
       only_selected="false" />
    <inkscape:path-effect
       effect="bspline"
       id="path-effect1509-6"
       is_visible="true"
       weight="33.333333"
       steps="2"
       helper_size="0"
       apply_no_weight="true"
       apply_with_weight="true"
       only_selected="false" />
  </defs>
  <metadata
     id="metadata907">
    <rdf:RDF>
      <cc:Work
         rdf:about="">
        <dc:format>image/svg+xml</dc:format>
        <dc:type
           rdf:resource="http://purl.org/dc/dcmitype/StillImage" />
        <dc:title />
      </cc:Work>
    </rdf:RDF>
  </metadata>
  <g
     id="layer1"
     inkscape:groupmode="layer"
     inkscape:label="Layer 1">
    <circle
       style="opacity:1;fill:#0b58f4;fill-opacity:1;fill-rule:nonzero;stroke:#ffffff;stroke-width:0.77105284;stroke-miterlimit:4;stroke-dasharray:none;stroke-dashoffset:0;stroke-opacity:0.70982139;paint-order:fill markers stroke"
       id="path18"
       cx="31.530758"
       cy="34.664761"
       r="25.930546" />
    <ellipse
       style="opacity:1;fill:#ffffff;fill-opacity:0.21693122;fill-rule:nonzero;stroke:#ffffff;stroke-width:0.08221686;stroke-miterlimit:4;stroke-dasharray:none;stroke-dashoffset:0;stroke-opacity:0;paint-order:fill markers stroke"
       id="path18-3"
       cx="31.617483"
       cy="23.979528"
       rx="20.640066"
       ry="14.263924" />
    <ellipse
       style="opacity:1;fill:#000000;fill-opacity:1;fill-rule:nonzero;stroke:#b2b2b2;stroke-width:0.147548;stroke-miterlimit:4;stroke-dasharray:none;stroke-dashoffset:0;stroke-opacity:0;paint-order:fill markers stroke"
       id="path20"
       cx="32.162121"
       cy="13.465765"
       rx="14.333174"
       ry="8.1944666" />
    <ellipse
       style="opacity:1;fill:#ffffff;fill-opacity:1;fill-rule:nonzero;stroke:#b2b2b2;stroke-width:0.10954677;stroke-miterlimit:4;stroke-dasharray:none;stroke-dashoffset:0;stroke-opacity:0;paint-order:fill markers stroke"
       id="path24"
       cx="32.222439"
       cy="10.196398"
       rx="13.833411"
       ry="7.5217814" />
    <ellipse
       style="opacity:1;fill:#4d4d4d;fill-opacity:1;fill-rule:nonzero;stroke:#b2b2b2;stroke-width:0.1302622;stroke-miterlimit:4;stroke-dasharray:none;stroke-dashoffset:0;stroke-opacity:0;paint-order:fill markers stroke"
       id="path836"
       cx="32.063354"
       cy="9.6926584"
       rx="11.360814"
       ry="5.1248479" />
    <path
       id="path1503-9"
       style="fill:#000000;fill-opacity:0.3482143;stroke:none;stroke-width:0.11384033;stroke-linecap:butt;stroke-linejoin:miter;stroke-miterlimit:4;stroke-dasharray:none;stroke-opacity:0.61214953"
       inkscape:path-effect="#path-effect1505-5"
       inkscape:original-d="m 11.930401,58.506925 c 0,0 23.05336,-25.532464 34.578749,-38.297304 1.31999,-1.009901 2.68168,-2.051426 4.02123,-3.075745 -1.10562,1.537792 -2.21111,3.075125 -3.31945,4.616163 -9.663166,10.67688 -19.308842,21.334412 -28.965857,32.004451 -0.722035,0.202175 -1.444435,0.40513 -2.168487,0.609238 -1.381899,1.380838 -4.146185,4.143197 -4.146185,4.143197 z m 8.733303,-10.135824 c 0.257344,-2.40883 0.513715,-4.816681 0.769144,-7.223546 2.874937,-3.781311 8.623762,-11.343356 8.623762,-11.343356 0,0 -2.173554,5.32227 -3.261763,7.984876 1.088402,-2.663078 2.175466,-5.324234 3.261763,-7.984876 2.808703,-3.404203 8.425659,-10.212593 8.425659,-10.212593 0,0 -1.443356,4.302342 -2.166473,6.45499 3.588042,-3.914458 10.757754,-11.736617 10.757754,-11.736617 0,0 0.72075,1.347026 1.07969,2.022011 2.77951,-2.581972 5.55359,-5.15882 8.32895,-7.736757 1.2241,-0.290248 3.66944,-0.867795 3.66944,-0.867795 l -3.30657,3.973289 c 0,0 1.27662,-0.846509 1.91349,-1.268293 1.29192,-1.328428 3.87289,-3.9823337 3.87289,-3.9823337 0,0 -4.13031,8.0697627 -6.1969,12.1061157 -3.17468,2.292188 -6.35032,4.585353 -9.5269,6.879498 3.21097,-1.96202 9.62786,-5.881776 9.62786,-5.881776 0,0 -2.32084,4.507343 -3.48269,6.762488 -2.65739,1.99286 -5.31226,3.984092 -7.97203,5.979269 -2.9175,1.853711 -5.832729,3.706346 -8.750528,5.560992 3.045483,-1.193159 9.231668,-3.620254 9.231668,-3.620254 0,0 -3.46613,3.209611 -5.200638,4.815888 -3.376027,2.382274 -6.749057,4.76274 -10.125024,7.145583 -3.429183,1.664017 -6.857208,3.327992 -10.287247,4.99346 0.239235,-0.941299 0.477418,-1.881155 0.714689,-2.820263 z"
       d="M 11.930401,58.506925 C 23.456651,45.741157 34.983748,32.97445 41.40651,26.08717 c 6.422761,-6.887279 7.784451,-7.928804 7.901286,-7.672199 0.116835,0.256604 -0.988652,1.79394 -6.374347,7.902939 -5.385696,6.108999 -15.031372,16.766531 -20.220803,22.202959 -5.189431,5.436427 -5.91183,5.639386 -6.964878,6.431558 -1.053048,0.792172 -2.435305,2.173432 -3.817367,3.554498 z m 8.861551,-11.340284 c 0.128247,-1.20446 0.384629,-3.61231 1.950166,-6.706403 1.565538,-3.094092 4.439905,-6.87492 7.314492,-10.656039 -1.087254,2.661625 -2.174029,5.322076 -2.173932,5.32184 9.6e-5,-2.36e-4 1.087159,-2.661393 3.034854,-5.693753 1.947694,-3.032361 4.756184,-6.436482 7.564737,-9.84068 -0.722158,2.151663 -1.443921,4.302152 -0.01119,3.421327 1.432729,-0.880825 5.016555,-4.790748 8.602473,-8.702954 0.359897,0.674004 0.719598,1.347641 2.289421,0.393863 1.569822,-0.953777 4.343906,-3.530622 6.343697,-4.9643807 1.999792,-1.4337589 3.221815,-1.7227583 4.444962,-2.0120233 0,0 -3.30657,3.973289 -3.30657,3.973289 0.63783,-0.422764 1.276778,-0.84627 2.241094,-1.7214956 0.964316,-0.8752255 2.254323,-2.2016865 3.545286,-3.5291311 -2.065633,4.0353717 -4.13067,8.0695787 -6.751056,11.2340367 -2.620387,3.164457 -5.796024,5.457626 -5.77881,5.623737 0.01721,0.166111 3.224639,-1.793344 6.433926,-3.753936 -1.160897,2.254163 -2.321194,4.507161 -4.230573,6.631339 -1.90938,2.124178 -4.564249,4.115412 -7.352864,6.039903 -2.788615,1.92449 -5.703843,3.777128 -5.64028,4.107241 0.06356,0.330114 3.172914,-0.889237 6.250137,-2.095988 -1.733546,1.605296 -3.466085,3.20966 -6.021303,5.204013 -2.555218,1.994353 -5.928248,4.374819 -9.330793,6.398357 -3.402545,2.023538 -6.830571,3.687511 -8.426403,4.049304 -1.595831,0.361792 -1.35766,-0.578067 -1.23869,-1.047537 0.118969,-0.469469 0.118973,-0.469469 0.247221,-1.673929 z"
       inkscape:connector-curvature="0" />
    <path
       style="fill:#333333;stroke:#b3b3b3;stroke-width:0.37795275;stroke-linecap:butt;stroke-linejoin:miter;stroke-miterlimit:4;stroke-dasharray:none;stroke-opacity:0.70982139"
       d="m 20.916471,46.010722 c 0.144946,-1.315593 0.434709,-3.945607 2.037857,-7.342869 1.603147,-3.397262 4.519378,-7.562336 7.435825,-11.727718 -1.120719,2.918713 -2.240952,5.83616 -2.240852,5.835901 9.9e-5,-2.59e-4 1.12062,-2.918457 3.103414,-6.253874 1.982794,-3.335417 4.828033,-7.088652 7.673331,-10.841965 -0.74988,2.357248 -1.499357,4.713229 -0.06014,3.731954 1.439222,-0.981275 5.063724,-5.297308 8.690339,-9.615857 0.34871,0.730011 0.697179,1.459517 2.273979,0.396767 1.5768,-1.0627493 4.375929,-3.9131434 6.387734,-5.5056426 2.011805,-1.5924992 3.23269,-1.9252043 4.454757,-2.2582314 0,0 -3.34934,4.3811761 -3.34934,4.3811761 0.64116,-0.4702596 1.283467,-0.9413607 2.256183,-1.9098043 0.972716,-0.9684437 2.276204,-2.4337406 3.580657,-3.9001237 -2.11459,4.4311236 -4.228579,8.860987 -6.883068,12.3500949 -2.654489,3.489107 -5.849391,6.035827 -5.834623,6.216762 0.01477,0.180934 3.236511,-2.002224 6.460161,-4.186675 -1.18821,2.47533 -2.375815,4.9494 -4.307442,7.293655 -1.931626,2.344254 -4.603664,4.554187 -7.40792,6.693236 -2.804255,2.139049 -5.733551,4.201536 -5.675042,4.560722 0.05851,0.359186 3.17212,-1.015369 6.253474,-2.375684 -1.749124,1.775784 -3.49723,3.550535 -6.070079,5.762439 -2.572849,2.211904 -5.965555,4.856672 -9.382529,7.112544 -3.416975,2.255873 -6.854181,4.119922 -8.448396,4.53741 -1.594216,0.417489 -1.343605,-0.611064 -1.21842,-1.124843 0.125184,-0.51378 0.125189,-0.513781 0.270135,-1.829374 z"
       id="path1507"
       inkscape:connector-curvature="0"
       inkscape:path-effect="#path-effect1509"
       inkscape:original-d="m 20.771525,47.326315 c 0.290727,-2.631094 0.580488,-5.261108 0.869288,-7.890033 2.916799,-4.165595 8.74934,-12.496147 8.74934,-12.496147 0,0 -2.240474,5.836343 -3.362157,8.756139 1.121882,-2.920314 2.242404,-5.838511 3.362157,-8.756139 2.845447,-3.753321 8.535893,-11.259938 8.535893,-11.259938 0,0 -1.49879,4.713409 -2.249641,7.071745 C 40.305167,18.430905 47.55625,9.796294 47.55625,9.796294 c 0,0 0.69839,1.458938 1.04613,2.190032 2.8046,-2.856062 5.60373,-5.7064555 8.40414,-8.5580577 1.22304,-0.3341133 3.6662,-0.9990813 3.6662,-0.9990813 l -3.34934,4.3811761 c 0,0 1.28329,-0.9416025 1.92348,-1.4107788 1.30542,-1.4674687 3.91336,-4.3991492 3.91336,-4.3991492 0,0 -4.22821,8.8611629 -6.34377,13.2933709 -3.19394,2.545639 -6.38884,5.092361 -9.58471,7.640163 3.22536,-2.186033 9.67095,-6.553352 9.67095,-6.553352 0,0 -2.37545,4.949575 -3.56463,7.425991 -2.67458,2.211747 -5.34662,4.421677 -8.02359,6.635983 -2.93159,2.063693 -5.860884,4.126182 -8.792773,6.1909 3.049558,-1.345036 9.244063,-4.080945 9.244063,-4.080945 0,0 -3.49728,3.550485 -5.247372,5.327353 -3.395717,2.646783 -6.788422,5.291552 -10.184085,7.938956 -3.438361,1.864113 -6.875566,3.728164 -10.314799,5.59387 0.251684,-1.030139 0.502315,-2.058687 0.752016,-3.086409 z"
       sodipodi:nodetypes="ccccccccccccscscccccccccc" />
    <path
       style="fill:#999999;stroke:none;stroke-width:0.11862778;stroke-linecap:butt;stroke-linejoin:miter;stroke-miterlimit:4;stroke-dasharray:none;stroke-opacity:0.61214953"
       d="M 11.930401,58.506925 C 23.590197,44.417736 35.25085,30.327512 41.744797,22.7233 c 6.493948,-7.604211 7.864735,-8.759744 7.977383,-8.481514 0.112648,0.27823 -1.010126,1.970889 -6.460284,8.711338 -5.450157,6.740449 -15.207225,18.503172 -20.452303,24.507205 -5.245078,6.004032 -5.967297,6.235751 -7.027212,7.114889 -1.059916,0.879139 -2.456048,2.405532 -3.85198,3.931707 z"
       id="path1503"
       inkscape:connector-curvature="0"
       inkscape:path-effect="#path-effect1505"
       inkscape:original-d="m 11.930401,58.506925 c 0,0 23.320462,-28.179402 34.979389,-42.267567 1.32881,-1.120441 2.6996,-2.27597 4.04809,-3.41242 -1.12292,1.693165 -2.24569,3.385827 -3.37137,5.082571 -9.774757,11.784076 -19.531827,23.546797 -29.300366,35.323323 -0.721845,0.230857 -1.444064,0.462573 -2.167946,0.695569 -1.395767,1.525925 -4.187797,4.578524 -4.187797,4.578524 z"
       sodipodi:nodetypes="ccccccc" />
  </g>
</svg>
