<?xml version="1.0" encoding="UTF-8" standalone="no"?>
<!-- Created with Inkscape (http://www.inkscape.org/) -->

<svg
   xmlns:dc="http://purl.org/dc/elements/1.1/"
   xmlns:cc="http://creativecommons.org/ns#"
   xmlns:rdf="http://www.w3.org/1999/02/22-rdf-syntax-ns#"
   xmlns:svg="http://www.w3.org/2000/svg"
   xmlns="http://www.w3.org/2000/svg"
   xmlns:xlink="http://www.w3.org/1999/xlink"
   xmlns:sodipodi="http://sodipodi.sourceforge.net/DTD/sodipodi-0.dtd"
   xmlns:inkscape="http://www.inkscape.org/namespaces/inkscape"
   width="64px"
   height="64px"
   viewBox="0 0 64 64"
   version="1.1"
   id="SVGRoot"
   inkscape:version="0.92.2 5c3e80d, 2017-08-06"
   sodipodi:docname="libreoffice-calc.svg">
  <sodipodi:namedview
     id="base"
     pagecolor="#ffffff"
     bordercolor="#666666"
     borderopacity="1.0"
     inkscape:pageopacity="0.0"
     inkscape:pageshadow="2"
     inkscape:zoom="8"
     inkscape:cx="28.992713"
     inkscape:cy="32.129938"
     inkscape:document-units="px"
     inkscape:current-layer="layer1"
     showgrid="false"
     inkscape:window-width="1366"
     inkscape:window-height="703"
     inkscape:window-x="0"
     inkscape:window-y="0"
     inkscape:window-maximized="1"
     inkscape:grid-bbox="true"
     inkscape:pagecheckerboard="true" />
  <defs
     id="defs4485">
    <linearGradient
       inkscape:collect="always"
       id="linearGradient1002">
      <stop
         style="stop-color:#009f00;stop-opacity:1"
         offset="0"
         id="stop998" />
      <stop
         style="stop-color:#00ad00;stop-opacity:1"
         offset="1"
         id="stop1000" />
    </linearGradient>
    <inkscape:perspective
       sodipodi:type="inkscape:persp3d"
       inkscape:vp_x="-112.39423 : 30.792499 : 1"
       inkscape:vp_y="6.8909449e-14 : 1074.5471 : 0"
       inkscape:vp_z="73.707523 : 34.117266 : 1"
       inkscape:persp3d-origin="13.650278 : 9.7336471 : 1"
       id="perspective10383" />
    <marker
       inkscape:stockid="DotM"
       orient="auto"
       refY="0.0"
       refX="0.0"
       id="marker5806"
       style="overflow:visible"
       inkscape:isstock="true">
      <path
         id="path5804"
         d="M -2.5,-1.0 C -2.5,1.7600000 -4.7400000,4.0 -7.5,4.0 C -10.260000,4.0 -12.5,1.7600000 -12.5,-1.0 C -12.5,-3.7600000 -10.260000,-6.0 -7.5,-6.0 C -4.7400000,-6.0 -2.5,-3.7600000 -2.5,-1.0 z "
         style="fill-rule:evenodd;stroke:#ff6300;stroke-width:1pt;stroke-opacity:1;fill:#ff6300;fill-opacity:1"
         transform="scale(0.4) translate(7.4, 1)" />
    </marker>
    <marker
       inkscape:stockid="DotM"
       orient="auto"
       refY="0.0"
       refX="0.0"
       id="marker5770"
       style="overflow:visible"
       inkscape:isstock="true">
      <path
         id="path5768"
         d="M -2.5,-1.0 C -2.5,1.7600000 -4.7400000,4.0 -7.5,4.0 C -10.260000,4.0 -12.5,1.7600000 -12.5,-1.0 C -12.5,-3.7600000 -10.260000,-6.0 -7.5,-6.0 C -4.7400000,-6.0 -2.5,-3.7600000 -2.5,-1.0 z "
         style="fill-rule:evenodd;stroke:#ff6300;stroke-width:1pt;stroke-opacity:1;fill:#ff6300;fill-opacity:1"
         transform="scale(0.4) translate(7.4, 1)" />
    </marker>
    <marker
       inkscape:stockid="DiamondM"
       orient="auto"
       refY="0.0"
       refX="0.0"
       id="marker5704"
       style="overflow:visible"
       inkscape:isstock="true">
      <path
         id="path5702"
         d="M 0,-7.0710768 L -7.0710894,0 L 0,7.0710589 L 7.0710462,0 L 0,-7.0710768 z "
         style="fill-rule:evenodd;stroke:#ff6300;stroke-width:1pt;stroke-opacity:1;fill:#ff6300;fill-opacity:1"
         transform="scale(0.4)" />
    </marker>
    <marker
       inkscape:stockid="DiamondM"
       orient="auto"
       refY="0.0"
       refX="0.0"
       id="DiamondM"
       style="overflow:visible"
       inkscape:isstock="true">
      <path
         id="path5314"
         d="M 0,-7.0710768 L -7.0710894,0 L 0,7.0710589 L 7.0710462,0 L 0,-7.0710768 z "
         style="fill-rule:evenodd;stroke:#ff6300;stroke-width:1pt;stroke-opacity:1;fill:#ff6300;fill-opacity:1"
         transform="scale(0.4)" />
    </marker>
    <marker
       inkscape:stockid="DotM"
       orient="auto"
       refY="0.0"
       refX="0.0"
       id="DotM"
       style="overflow:visible"
       inkscape:isstock="true">
      <path
         id="path5296"
         d="M -2.5,-1.0 C -2.5,1.7600000 -4.7400000,4.0 -7.5,4.0 C -10.260000,4.0 -12.5,1.7600000 -12.5,-1.0 C -12.5,-3.7600000 -10.260000,-6.0 -7.5,-6.0 C -4.7400000,-6.0 -2.5,-3.7600000 -2.5,-1.0 z "
         style="fill-rule:evenodd;stroke:#ff6300;stroke-width:1pt;stroke-opacity:1;fill:#ff6300;fill-opacity:1"
         transform="scale(0.4) translate(7.4, 1)" />
    </marker>
    <marker
       inkscape:stockid="DotL"
       orient="auto"
       refY="0.0"
       refX="0.0"
       id="DotL"
       style="overflow:visible"
       inkscape:isstock="true">
      <path
         id="path5293"
         d="M -2.5,-1.0 C -2.5,1.7600000 -4.7400000,4.0 -7.5,4.0 C -10.260000,4.0 -12.5,1.7600000 -12.5,-1.0 C -12.5,-3.7600000 -10.260000,-6.0 -7.5,-6.0 C -4.7400000,-6.0 -2.5,-3.7600000 -2.5,-1.0 z "
         style="fill-rule:evenodd;stroke:#ff6300;stroke-width:1pt;stroke-opacity:1;fill:#ff6300;fill-opacity:1"
         transform="scale(0.8) translate(7.4, 1)" />
    </marker>
    <marker
       inkscape:stockid="Arrow1Mstart"
       orient="auto"
       refY="0.0"
       refX="0.0"
       id="Arrow1Mstart"
       style="overflow:visible"
       inkscape:isstock="true">
      <path
         id="path5238"
         d="M 0.0,0.0 L 5.0,-5.0 L -12.5,0.0 L 5.0,5.0 L 0.0,0.0 z "
         style="fill-rule:evenodd;stroke:#ff6300;stroke-width:1pt;stroke-opacity:1;fill:#ff6300;fill-opacity:1"
         transform="scale(0.4) translate(10,0)" />
    </marker>
    <marker
       inkscape:stockid="Arrow1Lstart"
       orient="auto"
       refY="0.0"
       refX="0.0"
       id="Arrow1Lstart"
       style="overflow:visible"
       inkscape:isstock="true">
      <path
         id="path5232"
         d="M 0.0,0.0 L 5.0,-5.0 L -12.5,0.0 L 5.0,5.0 L 0.0,0.0 z "
         style="fill-rule:evenodd;stroke:#ff6300;stroke-width:1pt;stroke-opacity:1;fill:#ff6300;fill-opacity:1"
         transform="scale(0.8) translate(12.5,0)" />
    </marker>
    <marker
       inkscape:stockid="DotM"
       orient="auto"
       refY="0"
       refX="0"
       id="marker5806-5"
       style="overflow:visible"
       inkscape:isstock="true">
      <path
         inkscape:connector-curvature="0"
         id="path5804-6"
         d="m -2.5,-1 c 0,2.76 -2.24,5 -5,5 -2.76,0 -5,-2.24 -5,-5 0,-2.76 2.24,-5 5,-5 2.76,0 5,2.24 5,5 z"
         style="fill:#ff6300;fill-opacity:1;fill-rule:evenodd;stroke:#ff6300;stroke-width:1.00000003pt;stroke-opacity:1"
         transform="matrix(0.4,0,0,0.4,2.96,0.4)" />
    </marker>
    <marker
       inkscape:stockid="DotM"
       orient="auto"
       refY="0"
       refX="0"
       id="marker5770-2"
       style="overflow:visible"
       inkscape:isstock="true">
      <path
         inkscape:connector-curvature="0"
         id="path5768-9"
         d="m -2.5,-1 c 0,2.76 -2.24,5 -5,5 -2.76,0 -5,-2.24 -5,-5 0,-2.76 2.24,-5 5,-5 2.76,0 5,2.24 5,5 z"
         style="fill:#ff6300;fill-opacity:1;fill-rule:evenodd;stroke:#ff6300;stroke-width:1.00000003pt;stroke-opacity:1"
         transform="matrix(0.4,0,0,0.4,2.96,0.4)" />
    </marker>
    <marker
       inkscape:stockid="DotM"
       orient="auto"
       refY="0"
       refX="0"
       id="DotM-1"
       style="overflow:visible"
       inkscape:isstock="true">
      <path
         inkscape:connector-curvature="0"
         id="path5296-2"
         d="m -2.5,-1 c 0,2.76 -2.24,5 -5,5 -2.76,0 -5,-2.24 -5,-5 0,-2.76 2.24,-5 5,-5 2.76,0 5,2.24 5,5 z"
         style="fill:#ff6300;fill-opacity:1;fill-rule:evenodd;stroke:#ff6300;stroke-width:1.00000003pt;stroke-opacity:1"
         transform="matrix(0.4,0,0,0.4,2.96,0.4)" />
    </marker>
    <inkscape:perspective
       sodipodi:type="inkscape:persp3d"
       inkscape:vp_x="-41.198154 : 28.515488 : 1"
       inkscape:vp_y="6.3673924e-14 : 748.00245 : 0"
       inkscape:vp_z="68.016515 : 30.796685 : 1"
       inkscape:persp3d-origin="15.803573 : 14.756493 : 1"
       id="perspective10383-6" />
    <inkscape:perspective
       sodipodi:type="inkscape:persp3d"
       inkscape:vp_x="-53.225281 : 26.713506 : 1"
       inkscape:vp_y="6.3673924e-14 : 447.12755 : 0"
       inkscape:vp_z="54.364388 : 26.582715 : 1"
       inkscape:persp3d-origin="2.151446 : 16.994495 : 1"
       id="perspective10383-3" />
    <radialGradient
       inkscape:collect="always"
       xlink:href="#linearGradient1002"
       id="radialGradient1004"
       cx="24.718651"
       cy="38.559662"
       fx="24.718651"
       fy="38.559662"
       r="22.711412"
       gradientTransform="matrix(-0.72820589,-0.8310799,0.87964482,-0.77075927,16.784586,86.984092)"
       gradientUnits="userSpaceOnUse" />
  </defs>
  <metadata
     id="metadata4488">
    <rdf:RDF>
      <cc:Work
         rdf:about="">
        <dc:format>image/svg+xml</dc:format>
        <dc:type
           rdf:resource="http://purl.org/dc/dcmitype/StillImage" />
        <dc:title />
      </cc:Work>
    </rdf:RDF>
  </metadata>
  <g
     id="layer1"
     inkscape:groupmode="layer"
     inkscape:label="Layer 1">
    <path
       style="opacity:1;fill:#ff6600;fill-opacity:1;fill-rule:nonzero;stroke:#ffffff;stroke-width:0.80000001;stroke-miterlimit:4;stroke-dasharray:none;stroke-dashoffset:0;stroke-opacity:1;paint-order:fill markers stroke"
       d="M 35.703125,36.095703 53.619141,52.935547 A 26.162951,26.162951 0 0 0 61.498047,34.257812 26.162951,26.162951 0 0 0 55.636719,17.785156 Z"
       id="path4664"
       inkscape:connector-curvature="0" />
    <path
       style="opacity:1;fill:url(#radialGradient1004);fill-opacity:1;fill-rule:nonzero;stroke:#ffffff;stroke-width:0.80000001;stroke-miterlimit:4;stroke-dasharray:none;stroke-dashoffset:0;stroke-opacity:1;paint-order:fill markers stroke"
       d="M 32.335938,8.720703 A 26.162951,26.162951 0 0 0 6.1738281,34.882812 26.162951,26.162951 0 0 0 32.335938,61.044922 26.162951,26.162951 0 0 0 50.619141,53.560547 L 32.703125,36.720703 V 8.738281 A 26.162951,26.162951 0 0 0 32.335938,8.720703 Z"
       id="path4655"
       inkscape:connector-curvature="0" />
    <path
       style="opacity:1;fill:#ffd42a;fill-opacity:1;fill-rule:nonzero;stroke:#ffffff;stroke-width:0.80000001;stroke-miterlimit:4;stroke-dasharray:none;stroke-dashoffset:0;stroke-opacity:1;paint-order:fill markers stroke"
       d="M 37.652873,30.268354 57.586467,11.957807 A 26.162951,26.162951 0 0 0 52.072795,6.8464791 Z"
       id="path4650"
       inkscape:connector-curvature="0" />
    <path
       style="opacity:1;fill:#1717ff;fill-opacity:1;fill-rule:nonzero;stroke:#ffffff;stroke-width:0.80000001;stroke-miterlimit:4;stroke-dasharray:none;stroke-dashoffset:0;stroke-opacity:1;paint-order:fill markers stroke"
       d="M 34.205727,3.7885335 V 31.770956 L 48.625649,8.349081 A 26.162951,26.162951 0 0 0 34.205727,3.7885335 Z"
       id="path4638"
       inkscape:connector-curvature="0" />
    <path
       style="fill:none;stroke:#000000;stroke-width:1px;stroke-linecap:butt;stroke-linejoin:miter;stroke-opacity:1"
       d="M 33.852737,33.538952 Z"
       id="path4657"
       inkscape:connector-curvature="0" />
  </g>
</svg>
