<?xml version="1.0" encoding="UTF-8" standalone="no"?>
<svg
   xmlns:dc="http://purl.org/dc/elements/1.1/"
   xmlns:cc="http://creativecommons.org/ns#"
   xmlns:rdf="http://www.w3.org/1999/02/22-rdf-syntax-ns#"
   xmlns:svg="http://www.w3.org/2000/svg"
   xmlns="http://www.w3.org/2000/svg"
   xmlns:sodipodi="http://sodipodi.sourceforge.net/DTD/sodipodi-0.dtd"
   xmlns:inkscape="http://www.inkscape.org/namespaces/inkscape"
   version="1.0"
   width="1280.000000pt"
   height="1109.000000pt"
   viewBox="0 0 1280.000000 1109.000000"
   preserveAspectRatio="xMidYMid meet"
   id="svg6"
   sodipodi:docname="dolphin.svg"
   inkscape:version="0.92.2 2405546, 2018-03-11">
  <metadata
     id="metadata12">
    <rdf:RDF>
      <cc:Work
         rdf:about="">
        <dc:format>image/svg+xml</dc:format>
        <dc:type
           rdf:resource="http://purl.org/dc/dcmitype/StillImage" />
      </cc:Work>
    </rdf:RDF>
  </metadata>
  <defs
     id="defs10">
    <inkscape:path-effect
       effect="bspline"
       id="path-effect826"
       is_visible="true"
       weight="33.333333"
       steps="2"
       helper_size="0"
       apply_no_weight="true"
       apply_with_weight="true"
       only_selected="false" />
  </defs>
  <sodipodi:namedview
     pagecolor="#ffffff"
     bordercolor="#666666"
     borderopacity="1"
     objecttolerance="10"
     gridtolerance="10"
     guidetolerance="10"
     inkscape:pageopacity="0"
     inkscape:pageshadow="2"
     inkscape:window-width="1366"
     inkscape:window-height="720"
     id="namedview8"
     showgrid="false"
     inkscape:zoom="0.31920649"
     inkscape:cx="968.88581"
     inkscape:cy="721.32579"
     inkscape:window-x="0"
     inkscape:window-y="24"
     inkscape:window-maximized="1"
     inkscape:current-layer="svg6" />
  <g
     transform="translate(0.000000,1109.000000) scale(0.100000,-0.100000)"
     fill="#000000"
     stroke="none"
     id="g4">
    <path
       d="M2350 11065 c-367 -41 -580 -142 -659 -311 -31 -65 -28 -97 14 -131 41 -34 72 -50 377 -197 349 -168 486 -255 625 -397 129 -133 183 -252 183 -408 0 -143 -47 -271 -144 -390 -180 -224 -369 -528 -501 -806 -136 -284 -670 -1587 -804 -1958 -302 -838 -433 -1465 -448 -2139 -5 -246 4 -496 25 -660 11 -80 -3 -343 -23 -428 -24 -107 -92 -241 -170 -335 -36 -44 -93 -114 -127 -155 -204 -250 -354 -572 -442 -951 -57 -247 -84 -435 -136 -939 -42 -409 -69 -608 -104 -775 -8 -38 -13 -71 -11 -73 1 -2 83 111 181 250 322 458 405 559 675 823 286 280 449 405 669 516 327 164 624 158 995 -21 66 -31 237 -128 380 -214 249 -151 421 -244 431 -233 8 8 -27 159 -63 267 -72 219 -223 483 -408 715 -43 55 -179 200 -301 322 -293 294 -355 376 -415 554 -56 168 -61 334 -19 599 19 114 32 158 102 333 276 698 640 1259 1143 1762 454 455 958 810 1650 1159 284 144 828 386 867 386 8 0 7 -40 -13 -380 -31 -536 -140 -831 -417 -1131 l-61 -66 112 -6 c137 -6 390 8 512 29 313 53 591 179 829 373 92 75 237 228 318 333 155 204 318 505 502 928 46 107 96 220 109 251 l25 56 159 6 c333 14 807 -20 1138 -83 263 -50 371 -82 708 -211 1125 -431 1905 -670 2397 -735 148 -19 372 -15 435 8 l40 15 -105 33 c-377 116 -593 231 -867 462 -167 140 -271 177 -572 203 -204 17 -300 34 -404 72 -81 29 -179 81 -222 119 l-30 26 30 -20 c56 -37 170 -90 235 -110 100 -30 186 -41 421 -52 315 -15 396 -40 576 -179 211 -163 406 -264 678 -351 140 -44 344 -93 362 -86 27 11 12 104 -31 191 -102 207 -453 474 -771 589 -16 6 -9 13 44 37 98 44 145 88 187 174 33 67 38 85 42 173 8 174 -48 378 -173 629 -135 272 -259 440 -473 641 -950 894 -1958 1442 -3132 1702 -812 180 -1768 198 -2640 48 -221 -38 -687 -24 -1380 42 -226 21 -319 30 -420 40 -398 38 -514 48 -782 65 -278 18 -748 18 -908 0z"
       id="path2"
       style="fill:#007ebf;fill-opacity:1;stroke:none" />
  </g>
  <path
     style="fill:#ffffff;fill-opacity:0.5714286;stroke:none;stroke-width:0.75px;stroke-linecap:butt;stroke-linejoin:miter;stroke-opacity:1"
     d="M 1034.8627,133.0831 C 1021.5483,117.81088 956.54337,81.000861 892.32168,59.854615 828.1,38.70837 764.6617,33.226047 705.92208,33.226006 c -58.73962,-4e-5 -112.7793,5.482246 -170.73605,5.873874 -57.95674,0.391628 -119.82799,-4.307455 -168.38607,-6.657057 -48.55807,-2.349602 -83.80132,-2.349602 -100.64036,2.740945 -16.83904,5.090547 -15.27268,15.271828 -0.39104,29.761822 14.88165,14.489994 43.07485,33.285461 56.38906,50.90677 13.31422,17.62131 11.74783,34.06844 -2.8e-4,54.43205 -11.7481,20.36361 -33.6764,44.64137 -52.4734,72.83674 -18.797,28.19538 -34.46033,60.30522 -43.07564,84.19284 -8.61532,23.88762 -10.18166,39.55102 7.04988,33.28484 17.23154,-6.26619 53.2565,-34.45964 100.63894,-73.61869 47.38244,-39.15904 106.12319,-89.28449 175.82677,-122.56979 69.70358,-33.2853 150.37347,-49.73255 229.08372,-51.69046 78.71025,-1.95791 155.4639,10.57329 213.02838,19.97158 57.56451,9.39828 95.94121,15.66386 82.62671,0.39163 z"
     id="path824"
     inkscape:connector-curvature="0"
     inkscape:path-effect="#path-effect826"
     inkscape:original-d="M 1086.553,154.62077 C 1021.5488,117.80999 956.54388,80.999957 891.53815,44.190679 828.10007,38.707563 764.66177,33.22524 701.22248,27.743645 647.18239,33.225298 593.14271,38.707584 539.10171,44.190679 477.22935,39.490705 415.3581,34.791624 353.48518,30.093221 c -35.24329,-7.5e-4 -70.48654,-7.5e-4 -105.73094,0 1.56717,10.180964 3.13352,20.362245 4.69916,30.544492 28.19738,18.797009 56.39058,37.592477 84.58474,56.389827 -1.56562,16.44619 -3.13201,32.89332 -4.69915,49.34111 -21.92971,24.27941 -43.85801,48.55716 -65.78814,72.83687 -15.6636,32.11116 -31.32693,64.221 -46.99152,96.33262 -1.56568,15.66354 -3.13202,31.32694 -4.69915,46.99153 36.02946,-28.19713 72.05442,-56.39058 108.08051,-84.58474 58.73881,-50.1239 117.47956,-100.24935 176.21822,-150.37289 80.66844,-16.44756 161.33833,-32.89482 242.00636,-49.3411 76.75273,12.53018 153.50638,25.06139 230.25846,37.59322 38.37687,6.26473 76.75357,12.53032 115.12927,18.79661 z" />
</svg>
