<?xml version="1.0" encoding="UTF-8" standalone="no"?>
<!-- Generator: Adobe Illustrator 16.0.4, SVG Export Plug-In . SVG Version: 6.00 Build 0)  -->

<svg
   xmlns:dc="http://purl.org/dc/elements/1.1/"
   xmlns:cc="http://creativecommons.org/ns#"
   xmlns:rdf="http://www.w3.org/1999/02/22-rdf-syntax-ns#"
   xmlns:svg="http://www.w3.org/2000/svg"
   xmlns="http://www.w3.org/2000/svg"
   xmlns:xlink="http://www.w3.org/1999/xlink"
   xmlns:sodipodi="http://sodipodi.sourceforge.net/DTD/sodipodi-0.dtd"
   xmlns:inkscape="http://www.inkscape.org/namespaces/inkscape"
   version="1.1"
   id="Layer_1"
   x="0px"
   y="0px"
   width="63.596px"
   height="63.425px"
   viewBox="0 0 63.596 63.425"
   enable-background="new 0 0 63.596 63.425"
   xml:space="preserve"
   sodipodi:docname="gnome-tweak-tool.svg"
   inkscape:version="0.92.2 5c3e80d, 2017-08-06"><metadata
     id="metadata9"><rdf:RDF><cc:Work
         rdf:about=""><dc:format>image/svg+xml</dc:format><dc:type
           rdf:resource="http://purl.org/dc/dcmitype/StillImage" /><dc:title></dc:title></cc:Work></rdf:RDF></metadata><defs
     id="defs7"><linearGradient
       inkscape:collect="always"
       id="linearGradient1031"><stop
         style="stop-color:#ffffff;stop-opacity:1;"
         offset="0"
         id="stop1027" /><stop
         style="stop-color:#ffffff;stop-opacity:0.63492066"
         offset="1"
         id="stop1029" /></linearGradient><linearGradient
       inkscape:collect="always"
       id="linearGradient958"><stop
         style="stop-color:#dfdfdf;stop-opacity:1;"
         offset="0"
         id="stop954" /><stop
         style="stop-color:#adadad;stop-opacity:1"
         offset="1"
         id="stop956" /></linearGradient><linearGradient
       inkscape:collect="always"
       id="linearGradient924"><stop
         style="stop-color:#d1d1d1;stop-opacity:1"
         offset="0"
         id="stop920" /><stop
         style="stop-color:#3b3b3b;stop-opacity:0"
         offset="1"
         id="stop922" /></linearGradient><linearGradient
       inkscape:collect="always"
       xlink:href="#linearGradient924"
       id="linearGradient932"
       x1="40.285088"
       y1="16.143681"
       x2="39.733124"
       y2="61.562031"
       gradientUnits="userSpaceOnUse"
       gradientTransform="translate(-18.232322,8.2580441)" /><linearGradient
       inkscape:collect="always"
       xlink:href="#linearGradient958"
       id="linearGradient960"
       x1="14.660542"
       y1="8.8893471"
       x2="31.572777"
       y2="32.877914"
       gradientUnits="userSpaceOnUse"
       gradientTransform="matrix(0.83961719,-0.19394764,0.19394764,0.83961719,-1.7372596,10.906421)" /><linearGradient
       inkscape:collect="always"
       xlink:href="#linearGradient1031"
       id="linearGradient1033"
       x1="43.845654"
       y1="56.090313"
       x2="18.100548"
       y2="7.0612974"
       gradientUnits="userSpaceOnUse"
       gradientTransform="matrix(0.74013329,0,0,0.74013329,7.7226895,8.1698931)" /></defs><sodipodi:namedview
     pagecolor="#ffffff"
     bordercolor="#666666"
     borderopacity="1"
     objecttolerance="10"
     gridtolerance="10"
     guidetolerance="10"
     inkscape:pageopacity="0"
     inkscape:pageshadow="2"
     inkscape:window-width="1366"
     inkscape:window-height="703"
     id="namedview5"
     showgrid="false"
     inkscape:zoom="5.2621901"
     inkscape:cx="15.924409"
     inkscape:cy="17.644932"
     inkscape:window-x="0"
     inkscape:window-y="0"
     inkscape:window-maximized="1"
     inkscape:current-layer="Layer_1"
     inkscape:pagecheckerboard="true" /><circle
     style="opacity:1;fill:#3e3e3e;fill-opacity:1;fill-rule:nonzero;stroke:url(#linearGradient1033);stroke-width:1.48026657;stroke-miterlimit:4;stroke-dasharray:none;stroke-dashoffset:0;stroke-opacity:1;paint-order:fill markers stroke"
     id="path970-6"
     cx="31.631462"
     cy="31.821501"
     r="22.222887" /><g
     id="g1038"
     transform="matrix(1.1532439,0,0,1.1532439,-4.6325434,-4.7635588)"><path
       inkscape:connector-curvature="0"
       style="fill:#000000;fill-opacity:0.2857143;stroke-width:0.5491659"
       id="path2-6"
       d="m 45.409445,35.13989 c 0.963606,-2.898115 3.311787,1.241086 3.783282,-1.774029 0.470251,-3.020463 -3.029475,0.203193 -3.062362,-2.853326 -0.03243,-3.052114 3.541467,0.09356 3.006417,-2.913979 -0.532921,-3.004203 -2.803987,1.180854 -3.830497,-1.699793 -1.020415,-2.876771 3.38591,-1.052521 1.90264,-3.725613 -1.481644,-2.669975 -2.272804,2.024264 -4.174202,-0.365461 -1.903529,-2.393064 2.859457,-2.10025 0.585301,-4.148839 -2.266111,-2.045047 -1.487125,2.652086 -4.060089,1.00838 -2.575541,-1.646035 2.011229,-2.910405 -0.801181,-4.106892 -2.810135,-1.200291 -0.540117,2.989711 -3.509738,2.267634 -2.968718,-0.718677 0.96007,-3.401274 -2.086665,-3.625086 -3.04828,-0.220289 0.450786,3.004053 -2.587164,3.285116 -3.044525,0.28237 -0.199026,-3.531049 -3.155005,-2.7519 -2.952903,0.781702 1.408672,2.691259 -1.374252,3.945583 -2.785539,1.256176 -1.338225,-3.27526 -3.875326,-1.576131 -2.540801,1.693904 2.203919,2.085477 -0.0242,4.178609 -2.22556,2.090058 -2.328723,-2.664816 -4.179083,-0.234408 -1.850479,2.427952 2.766256,1.263179 1.343428,3.962757 -1.425725,2.700711 -3.071127,-1.768768 -4.032339,1.128 -0.960771,2.89576 3.028929,0.296974 2.557049,3.31432 -0.471878,3.017345 -3.480208,-0.674411 -3.445652,2.381043 0.03064,3.050727 2.960777,-0.701435 3.495705,2.303651 0.534267,3.006598 -3.507762,0.488282 -2.483829,3.366601 1.022044,2.879889 2.567591,-1.623908 4.049012,1.046571 1.481644,2.669974 -3.155498,1.599141 -1.255768,3.989933 1.90186,2.394128 1.900938,-2.366744 4.170508,-0.321373 2.270133,2.046817 -2.459938,2.535304 0.115383,4.181844 2.572402,1.642254 1.024682,-2.861032 3.833754,-1.662412 2.812254,1.198207 -1.505935,3.206012 1.462281,3.924469 2.968618,0.721635 0.04997,-3.041648 3.097809,-2.820351 3.047398,0.222302 -0.389506,3.518609 2.652668,3.233405 3.041509,-0.283697 -0.944834,-2.884906 2.008009,-3.667835 2.955535,-0.778154 0.778549,3.454919 3.56386,2.199248 2.785979,-1.257181 -1.835064,-2.425928 0.703503,-4.120211 2.540677,-1.696357 1.860524,3.010143 4.085923,0.921814 2.225441,-2.092513 -2.519254,-1.701664 -0.668894,-4.132069 1.852487,-2.42707 2.736897,2.248664 4.161455,-0.450759 1.426509,-2.699765 -2.933843,-0.78973 -1.971745,-3.688507 z m -1.92165,-7.083505 -8.075967,0.88301 C 35.204726,28.502035 34.9178,28.10154 34.554439,27.767004 l 3.221172,-7.318317 c 2.970426,1.660843 4.971903,4.466623 5.712184,7.607698 z m -12.339464,4.331498 c -0.994707,-0.437822 -1.44446,-1.601195 -1.007301,-2.594396 0.438265,-0.995713 1.599346,-1.447074 2.593549,-1.009474 l 9.59e-4,-0.0021 c 0.994709,0.437823 1.446915,1.601076 1.008428,2.597292 -0.437159,0.993197 -1.601356,1.446188 -2.595562,1.008588 z m 4.310383,-12.924181 -3.209885,7.292682 c -0.489365,-0.03599 -0.975584,0.0122 -1.433747,0.156145 L 26.13249,20.529017 c 2.762881,-1.587751 6.126779,-2.04635 9.326224,-1.065315 z m -7.265784,10.261336 -7.982309,0.877434 c 0.01793,-1.54433 0.33951,-3.109209 1.000339,-4.61057 0.690692,-1.569215 1.687394,-2.905339 2.882012,-3.98635 l 4.682911,6.395052 c -0.136024,0.194532 -0.251059,0.410904 -0.350616,0.637087 -0.09955,0.226186 -0.180974,0.456151 -0.232337,0.687347 z m -7.73393,3.384391 8.012326,-0.87202 c 0.205291,0.430563 0.496884,0.825913 0.854334,1.160245 l -3.306567,7.512333 C 23.071876,39.17596 21.113978,36.30116 20.459,33.109429 Z m 7.851767,8.842845 3.316081,-7.533945 c 0.49439,0.0382 0.983907,-0.02294 1.446092,-0.165111 l 4.886754,6.670775 c -2.848764,1.661549 -6.348822,2.121422 -9.648927,1.028281 z m 11.679982,-2.516941 -4.882835,-6.666051 c 0.137034,-0.194089 0.251185,-0.408448 0.35074,-0.634634 0.09955,-0.226183 0.18164,-0.457658 0.231993,-0.689297 l 8.110285,-0.890105 c 0.02891,1.651946 -0.27948,3.335435 -0.988314,4.945866 -0.678967,1.542575 -1.653087,2.86284 -2.821869,3.934221 z" /><path
       inkscape:connector-curvature="0"
       style="fill:#3b3b3b;fill-opacity:1;stroke-width:0.81438667"
       id="path2-7"
       d="m 52.457867,24.864879 c -1.427508,-4.298251 5.035984,-1.465022 2.919998,-5.465493 -2.122212,-4.005716 -3.418696,2.930269 -6.170643,-0.671712 -2.747488,-3.597159 4.290339,-3.032149 0.985287,-6.130239 C 46.892954,9.501418 47.909441,16.489036 44.13316,13.977903 40.367561,11.465962 47.221464,9.722263 43.086766,7.863112 38.956771,6.006221 42.183335,12.285229 37.803408,11.13384 33.417985,9.980376 39.336344,6.1007525 34.816363,5.6854853 30.309076,5.2672855 35.403558,10.156114 30.88795,10.48707 26.367212,10.817539 30.694118,5.2443735 26.290983,6.3191491 c -4.403807,1.0682431 2.011918,4.0311949 -2.156915,5.8091119 -4.164741,1.781147 -1.8783,-4.8928796 -5.696494,-2.454576 -3.816909,2.443857 3.201848,3.168736 -0.157801,6.199038 -3.366302,3.037688 -3.370501,-4.018268 -6.190682,-0.468992 -2.8142575,3.549581 4.062199,1.946943 1.869363,5.907134 -2.194301,3.964708 -4.4968501,-2.703268 -6.0028485,1.567168 -1.5150334,4.26751 4.4692785,0.521429 3.6800635,4.985699 -0.788911,4.45835 -5.131757,-1.098914 -5.1728422,3.430753 -0.043405,4.52686 4.4074942,-0.954591 5.1132322,3.515405 0.703296,4.473899 -5.2184324,0.624531 -3.7892772,4.919057 1.4287896,4.292942 3.8619802,-2.33558 5.9794932,1.667881 2.117511,4.003459 -4.7331052,2.287726 -1.980122,5.88696 2.744131,3.597097 2.894851,-3.461212 6.197583,-0.365927 3.30328,3.097664 -3.73387,3.693468 0.03728,6.204124 3.770303,2.514196 1.60899,-4.208136 5.739169,-2.35045 4.129994,1.856893 -2.329409,4.700523 2.049481,5.854661 4.384385,1.156208 0.157682,-4.49893 4.66936,-4.083418 4.513634,0.416735 -0.672163,5.195334 3.848757,4.865658 4.513654,-0.332177 -1.322035,-4.308407 3.079027,-5.377689 4.404476,-1.072589 1.0565,5.145396 5.220448,3.364429 4.167244,-1.777551 -2.640313,-3.657857 1.176963,-6.100128 3.817642,-2.440682 2.660277,4.525854 6.021268,1.486883 3.361539,-3.036588 -3.68303,-2.588683 -0.869931,-6.139667 2.820546,-3.54769 3.991401,3.413463 6.185885,-0.550453 2.193933,-3.966295 -4.333255,-1.253275 -2.821211,-5.519256 1.512712,-4.270317 4.882033,1.924728 5.672288,-2.531424 0.786591,-4.461157 -4.503243,0.214426 -4.462156,-4.315241 0.04658,-4.527592 5.247305,0.242245 4.543764,-4.229092 -0.701525,-4.473472 -4.186373,1.665789 -5.616262,-2.631914 z m -8.570051,-6.709664 -8.810583,8.217014 C 34.443008,26.036458 33.746668,25.815334 33.018067,25.740411 L 30.349322,14.187169 c 5.003013,-0.663367 9.87111,0.893472 13.538494,3.968046 z M 33.07294,34.253218 c -1.57032,0.362736 -3.137206,-0.620173 -3.499393,-2.188114 -0.363104,-1.571908 0.615657,-3.138669 2.185183,-3.501223 l -6.98e-4,-0.003 c 1.57032,-0.362737 3.140014,0.617853 3.5033,2.190553 0.362187,1.56794 -0.61883,3.139403 -2.188357,3.501957 z m -6.350352,-19.179811 2.659397,11.512772 c -0.613315,0.391587 -1.148174,0.880396 -1.564714,1.458052 L 16.588496,24.616696 c 1.873086,-4.338515 5.462385,-7.869035 10.134092,-9.543289 z m 0.475847,18.639456 -8.704268,8.127262 c -1.3494,-1.850594 -2.356304,-3.995108 -2.903799,-6.365268 -0.572241,-2.477281 -0.574053,-4.949253 -0.114308,-7.293809 l 11.239398,3.440964 c 0.01106,0.351837 0.06645,0.710989 0.148928,1.06806 0.08248,0.357071 0.189871,0.702538 0.334049,1.022791 z m -6.184093,10.885095 8.744734,-8.147475 c 0.626044,0.329303 1.32336,0.540174 2.044758,0.620103 l 2.739495,11.859529 c -5.040392,0.555822 -9.917975,-1.121694 -13.528987,-4.332157 z m 17.176617,3.536378 -2.747377,-11.893649 c 0.621252,-0.39342 1.148535,-0.900537 1.571423,-1.479663 l 11.726293,3.5876 c -1.909614,4.50242 -5.659545,8.155299 -10.550339,9.785712 z M 49.832918,34.77738 38.115479,31.191913 c -0.0095,-0.352203 -0.06412,-0.708184 -0.146597,-1.065256 -0.08248,-0.357072 -0.190411,-0.704921 -0.336197,-1.024803 l 8.845063,-8.255903 c 1.500556,1.936871 2.628407,4.210583 3.215678,6.752932 0.562525,2.435224 0.577088,4.868313 0.139492,7.178497 z" /><path
       inkscape:connector-curvature="0"
       style="fill:url(#linearGradient960);fill-opacity:1;stroke-width:0.81438667"
       id="path2"
       d="m 51.672861,23.983468 c -1.427508,-4.298252 5.035982,-1.465025 2.919998,-5.465493 -2.122212,-4.005719 -3.418697,2.930267 -6.170644,-0.671713 -2.747488,-3.597159 4.29034,-3.03215 0.985289,-6.13024 -3.299556,-3.096016 -2.28307,3.891601 -6.05935,1.380468 C 39.582553,10.58455 46.436458,8.840851 42.301761,6.9816997 38.171766,5.1248072 41.398328,11.403816 37.018402,10.252425 32.632977,9.09896 38.551336,5.2193357 34.031357,4.8040681 29.524068,4.3858689 34.618551,9.274698 30.102943,9.605653 25.582203,9.936122 29.909111,4.3629564 25.505976,5.4377324 21.102167,6.5059768 27.517894,9.468927 23.349062,11.246844 19.184321,13.027994 21.47076,6.3539674 17.652569,8.79227 c -3.816909,2.443858 3.201846,3.168737 -0.157804,6.199039 -3.366299,3.037689 -3.3705,-4.018268 -6.190679,-0.46899 -2.8142591,3.549579 4.062197,1.946942 1.869361,5.907133 -2.1943,3.964708 -4.4968496,-2.703268 -6.0028479,1.567168 -1.5150334,4.267509 4.4692779,0.521429 3.6800639,4.985701 -0.788911,4.458348 -5.1317578,-1.098918 -5.1728428,3.430749 -0.043405,4.526863 4.4074938,-0.95459 5.1132328,3.515407 0.703295,4.4739 -5.2184328,0.62453 -3.7892771,4.919058 1.4287892,4.292941 3.8619811,-2.335581 5.9794921,1.667879 2.117512,4.00346 -4.7331044,2.287728 -1.980122,5.88696 2.744131,3.597098 2.894852,-3.461209 6.197582,-0.365928 3.303281,3.097666 -3.733869,3.69347 0.03729,6.204126 3.770299,2.514195 1.608987,-4.208137 5.739166,-2.350449 4.129996,1.85689 -2.329409,4.700523 2.049482,5.85466 4.384386,1.156208 0.15768,-4.49893 4.66936,-4.083417 4.513634,0.416735 -0.672164,5.195333 3.848756,4.865657 4.513656,-0.332177 -1.322033,-4.308408 3.079028,-5.377688 4.404479,-1.07258 1.0565,5.145393 5.220448,3.364426 4.167243,-1.777549 -2.640314,-3.657855 1.176963,-6.100125 3.817641,-2.440683 2.660276,4.525851 6.021267,1.486884 3.361539,-3.036589 -3.683029,-2.588687 -0.86993,-6.13967 2.820547,-3.54769 3.9914,3.413463 6.185884,-0.550452 2.193934,-3.966296 -4.333255,-1.253275 -2.821212,-5.519258 1.512713,-4.270315 4.882035,1.924731 5.67229,-2.531422 0.786592,-4.461157 -4.503244,0.214427 -4.462158,-4.315241 0.04658,-4.527593 5.247306,0.242243 4.543766,-4.229092 -0.701526,-4.473473 -4.186373,1.665787 -5.616263,-2.631915 z M 43.10281,17.273803 34.292227,25.490817 C 33.658002,25.155046 32.961661,24.933922 32.233063,24.858998 L 29.564318,13.305759 c 5.00301,-0.663369 9.871107,0.893471 13.538492,3.968044 z M 32.287932,33.371805 c -1.570319,0.362736 -3.137205,-0.620172 -3.499393,-2.188114 -0.363103,-1.571906 0.615658,-3.138669 2.185184,-3.501221 l -6.98e-4,-0.003 c 1.570321,-0.362737 3.140014,0.617854 3.5033,2.190554 0.362187,1.56794 -0.618829,3.139403 -2.188357,3.501957 z m -6.35035,-19.17981 2.659396,11.512771 c -0.613315,0.391588 -1.148174,0.880396 -1.564713,1.458054 L 15.803489,23.735282 c 1.873087,-4.338514 5.462385,-7.869032 10.134093,-9.543287 z m 0.475847,18.639456 -8.70427,8.12726 c -1.349399,-1.850592 -2.356302,-3.995106 -2.903798,-6.365267 -0.57224,-2.47728 -0.574052,-4.949251 -0.114309,-7.293809 l 11.2394,3.440964 c 0.01106,0.351838 0.06645,0.71099 0.148928,1.068061 0.08248,0.35707 0.189861,0.702539 0.334049,1.022791 z m -6.184093,10.885095 8.744734,-8.147475 c 0.626042,0.329303 1.323359,0.540171 2.044757,0.620102 l 2.739496,11.859529 C 28.717931,48.604525 23.840346,46.927009 20.229336,43.716546 Z M 37.405954,47.252922 34.658577,35.359275 C 35.279827,34.965856 35.80711,34.458736 36.23,33.879612 l 11.726292,3.587602 c -1.909613,4.502417 -5.659546,8.155296 -10.550338,9.785708 z M 49.047911,33.895967 37.330472,30.3105 c -0.0095,-0.352205 -0.06412,-0.708183 -0.146597,-1.065256 -0.08248,-0.35707 -0.190421,-0.704918 -0.336197,-1.024801 l 8.845064,-8.255904 c 1.500555,1.936871 2.628407,4.210582 3.215677,6.75293 0.562526,2.435225 0.577088,4.868313 0.139492,7.178498 z" /></g></svg>