<?xml version="1.0" encoding="UTF-8" standalone="no"?>
<svg
   xmlns:dc="http://purl.org/dc/elements/1.1/"
   xmlns:cc="http://creativecommons.org/ns#"
   xmlns:rdf="http://www.w3.org/1999/02/22-rdf-syntax-ns#"
   xmlns:svg="http://www.w3.org/2000/svg"
   xmlns="http://www.w3.org/2000/svg"
   xmlns:xlink="http://www.w3.org/1999/xlink"
   xmlns:sodipodi="http://sodipodi.sourceforge.net/DTD/sodipodi-0.dtd"
   xmlns:inkscape="http://www.inkscape.org/namespaces/inkscape"
   width="64"
   height="64"
   version="1"
   id="svg12"
   sodipodi:docname="rambox.svg"
   inkscape:version="0.92.4 5da689c313, 2019-01-14">
  <metadata
     id="metadata18">
    <rdf:RDF>
      <cc:Work
         rdf:about="">
        <dc:format>image/svg+xml</dc:format>
        <dc:type
           rdf:resource="http://purl.org/dc/dcmitype/StillImage" />
        <dc:title></dc:title>
      </cc:Work>
    </rdf:RDF>
  </metadata>
  <defs
     id="defs16">
    <linearGradient
       inkscape:collect="always"
       id="linearGradient4533">
      <stop
         style="stop-color:#1589ab;stop-opacity:1"
         offset="0"
         id="stop4529" />
      <stop
         style="stop-color:#19a3cb;stop-opacity:0.91764706"
         offset="1"
         id="stop4531" />
    </linearGradient>
    <linearGradient
       inkscape:collect="always"
       xlink:href="#linearGradient4533"
       id="linearGradient4535"
       x1="16.851921"
       y1="38.915253"
       x2="51.215881"
       y2="11.254237"
       gradientUnits="userSpaceOnUse" />
  </defs>
  <sodipodi:namedview
     pagecolor="#ffffff"
     bordercolor="#666666"
     borderopacity="1"
     objecttolerance="10"
     gridtolerance="10"
     guidetolerance="10"
     inkscape:pageopacity="0"
     inkscape:pageshadow="2"
     inkscape:window-width="1366"
     inkscape:window-height="720"
     id="namedview14"
     showgrid="false"
     inkscape:pagecheckerboard="true"
     inkscape:zoom="7.375"
     inkscape:cx="29.641597"
     inkscape:cy="35.095947"
     inkscape:window-x="0"
     inkscape:window-y="24"
     inkscape:window-maximized="1"
     inkscape:current-layer="svg12" />
  <rect
     style="fill:url(#linearGradient4535);stroke:#ffffff;stroke-width:2.26147032;stroke-miterlimit:4;stroke-dasharray:none;stroke-opacity:1;fill-opacity:1"
     width="60.305878"
     height="60.305878"
     x="1.8470625"
     y="1.8470625"
     rx="30.152939"
     ry="30.152939"
     id="rect2" />
  <path
     style="opacity:0.2;stroke-width:1.07689059"
     d="m 32.042828,13.696018 c -3.196365,1.670114 -5.023566,5.768914 -6.469498,8.614818 -0.919033,-1.240727 -0.721564,-3.841994 -1.078249,-5.384261 -2.824798,3.714064 -4.068666,10.100441 -5.206004,13.814073 -1.610324,5.279376 -3.662597,8.519624 -6.591554,10.406699 -1.740402,1.121264 -3.3000893,1.698046 -6.6717755,2.460825 -0.4538568,0.135106 -0.8070266,0.206181 -1.2172359,0.302853 4.8434964,10.156867 15.1752834,17.165022 27.2322684,17.165022 0.857596,0 1.7007,-0.05686 2.539707,-0.126192 0.609083,-2.312001 0.603109,-4.86414 0.197956,-6.587316 -0.360134,-1.414985 -1.291741,-3.956356 -1.231362,-4.055428 0.06159,-0.0993 1.581793,0.05468 2.872459,0.05468 1.524796,0 2.642356,0.05488 3.449534,-0.189297 0.68333,-0.206698 1.499219,-0.541829 1.983806,-0.517383 2.154775,0.108593 4.881667,-0.870744 5.601938,-2.784739 0.223607,-0.594336 1.163387,-1.362348 1.410996,-1.703623 0.405315,-0.558651 0.618398,-1.018767 0.358022,-1.897113 -0.366604,-1.240532 -1.867529,-1.970639 -3.456868,-3.417929 -1.203326,-1.09839 -1.804989,-1.212535 -1.865371,-2.386303 -0.04429,-0.863205 0.186247,-1.464626 -0.2822,-1.905511 -0.531015,-0.49977 -1.875161,-0.179714 -1.962758,-0.189298 -0.557865,-0.648221 -1.089573,-1.323665 -0.06318,-2.258805 0.776339,-0.708567 1.229203,-1.025163 1.229203,-1.800496 0,-0.761657 -0.451334,-0.984007 -1.124572,-1.573216 -0.444713,-0.389197 -0.919897,-0.706674 -1.061406,-0.706674 -0.141504,0 -0.857769,-0.567758 -1.587893,-1.261942 -1.414659,-1.346066 -2.410958,-1.154386 -3.512931,-1.154386 -0.890633,0 -1.339185,-0.865787 -1.339185,-2.153702 1.186073,-4.288026 4.690385,-7.624545 6.469497,-8.614817 -4.507082,-0.637281 -7.791432,1.596756 -10.782494,4.307408 -0.140165,-1.574358 1.988292,-5.443489 2.1565,-6.461113 z"
     id="path4"
     inkscape:connector-curvature="0" />
  <path
     style="fill:#ffffff;stroke-width:1.07689059"
     d="m 31.992808,12.61838 c -3.185662,1.670112 -5.006745,5.768914 -6.447838,8.614818 -0.915956,-1.24073 -0.719148,-3.841994 -1.074637,-5.384261 -2.815341,3.714061 -4.055046,10.100444 -5.188577,13.814076 -1.604931,5.279377 -3.650335,8.519625 -6.569485,10.4067 -1.734577,1.121263 -3.2890414,1.698045 -6.6494397,2.460823 -0.7696569,0.228292 -1.6177624,0.415665 -2.0620184,0.516889 4.3838846,11.201419 15.2220531,19.105515 27.9900601,19.105515 0.578371,0 1.142579,-0.05639 1.712717,-0.08835 1.387726,-2.713237 1.554253,-6.481144 1.015877,-8.77893 -0.358927,-1.41498 -1.287417,-3.95635 -1.227237,-4.055421 0.06139,-0.09931 1.576496,0.05468 2.86284,0.05468 1.519689,0 2.633511,0.05488 3.437987,-0.189295 0.681041,-0.206699 1.4942,-0.541832 1.977165,-0.517386 2.147558,0.108595 4.865321,-0.870742 5.583181,-2.784739 0.222878,-0.594337 1.159494,-1.362347 1.406276,-1.703625 0.403953,-0.55865 0.616323,-1.018766 0.356821,-1.897112 -0.365379,-1.240532 -1.861274,-1.970639 -3.445295,-3.417929 -1.199296,-1.098389 -1.798947,-1.212535 -1.859127,-2.386304 -0.04415,-0.863208 0.185624,-1.464628 -0.281253,-1.905514 -0.529238,-0.499765 -1.868884,-0.17971 -1.956188,-0.189294 -0.555996,-0.648225 -1.085945,-1.323669 -0.06298,-2.258807 0.773739,-0.70857 1.225088,-1.025164 1.225088,-1.800497 0,-0.761659 -0.449821,-0.984006 -1.120806,-1.573215 -0.443222,-0.389197 -0.916816,-0.706676 -1.057852,-0.706676 -0.141038,0 -0.8549,-0.567761 -1.582579,-1.261941 -1.409928,-1.346064 -2.402896,-1.154386 -3.501175,-1.154386 -0.887652,0 -1.334704,-0.865789 -1.334704,-2.153704 1.182103,-4.288025 4.674682,-7.624544 6.447837,-8.614819 -4.491993,-0.637281 -7.765343,1.596759 -10.746394,4.30741 -0.139707,-1.575006 1.981634,-5.443491 2.14928,-6.461115 z"
     id="path6"
     inkscape:connector-curvature="0" />
  <path
     style="opacity:0.2;fill:#ffffff;stroke-width:1.07689059"
     d="M 32,1.8470625 C 15.295512,1.8470625 1.8470625,15.295512 1.8470625,32 c 0,0.122286 0.012152,0.24126 0.01893,0.361768 C 2.2445602,15.991373 15.535361,2.9239531 32,2.9239531 c 16.46464,0 29.755439,13.0674199 30.134009,29.4378149 C 62.140873,32.24126 62.152937,32.122286 62.152937,32 62.152937,15.295512 48.704489,1.8470625 32,1.8470625 Z"
     id="path8"
     inkscape:connector-curvature="0" />
  <path
     style="opacity:0.2;stroke-width:1.07689059"
     d="m 1.8659922,32.715123 c -0.00678,0.120507 -0.01893,0.239482 -0.01893,0.361768 0,16.704487 13.4482108,30.152937 30.1529378,30.152937 16.704728,0 30.152937,-13.44845 30.152937,-30.152937 0,-0.122286 -0.01206,-0.241261 -0.01893,-0.361768 C 61.755434,49.085518 48.464875,62.152937 32,62.152937 15.535126,62.152937 2.2445657,49.085518 1.8659922,32.715123 Z"
     id="path10"
     inkscape:connector-curvature="0" />
</svg>
