<?xml version="1.0" encoding="UTF-8" standalone="no"?>
<!-- Created with Inkscape (http://www.inkscape.org/) -->

<svg
   xmlns:dc="http://purl.org/dc/elements/1.1/"
   xmlns:cc="http://creativecommons.org/ns#"
   xmlns:rdf="http://www.w3.org/1999/02/22-rdf-syntax-ns#"
   xmlns:svg="http://www.w3.org/2000/svg"
   xmlns="http://www.w3.org/2000/svg"
   xmlns:xlink="http://www.w3.org/1999/xlink"
   xmlns:sodipodi="http://sodipodi.sourceforge.net/DTD/sodipodi-0.dtd"
   xmlns:inkscape="http://www.inkscape.org/namespaces/inkscape"
   id="svg2"
   version="1.1"
   inkscape:version="0.92.2 5c3e80d, 2017-08-06"
   width="546.13336"
   height="546.13336"
   sodipodi:docname="spotify-client.svg">
  <metadata
     id="metadata8">
    <rdf:RDF>
      <cc:Work
         rdf:about="">
        <dc:format>image/svg+xml</dc:format>
        <dc:type
           rdf:resource="http://purl.org/dc/dcmitype/StillImage" />
        <dc:title />
      </cc:Work>
    </rdf:RDF>
  </metadata>
  <defs
     id="defs6">
    <linearGradient
       inkscape:collect="always"
       id="linearGradient820">
      <stop
         style="stop-color:#12ff12;stop-opacity:1"
         offset="0"
         id="stop816" />
      <stop
         style="stop-color:#00cf00;stop-opacity:1"
         offset="1"
         id="stop818" />
    </linearGradient>
    <radialGradient
       inkscape:collect="always"
       xlink:href="#linearGradient820"
       id="radialGradient822"
       cx="275.43976"
       cy="273.3215"
       fx="275.43976"
       fy="273.3215"
       r="244.72523"
       gradientTransform="matrix(1.1875399,0.02546622,-0.02410866,1.1242343,-45.826541,-38.664555)"
       gradientUnits="userSpaceOnUse" />
  </defs>
  <sodipodi:namedview
     pagecolor="#ffffff"
     bordercolor="#666666"
     borderopacity="1"
     objecttolerance="10"
     gridtolerance="10"
     guidetolerance="10"
     inkscape:pageopacity="0"
     inkscape:pageshadow="2"
     inkscape:window-width="1208"
     inkscape:window-height="701"
     id="namedview4"
     showgrid="false"
     inkscape:zoom="0.65186406"
     inkscape:cx="90.081552"
     inkscape:cy="306.40207"
     inkscape:window-x="15"
     inkscape:window-y="0"
     inkscape:window-maximized="0"
     inkscape:current-layer="svg2"
     inkscape:pagecheckerboard="true" />
  <path
     inkscape:connector-curvature="0"
     id="path2994"
     d="M 251.86945,523.35919 C 202.26333,518.59161 155.1646,499.55784 116.77409,468.76378 75.952943,436.02005 42.782445,381.42257 31.528582,328.4527 c -4.194815,-19.74422 -5.402233,-31.60875 -5.402233,-53.08426 0,-29.7773 3.696149,-52.61606 12.974118,-80.16806 C 69.351754,105.3658 148.34247,41.095534 244.28597,28.25261 c 13.24897,-1.77349 47.41876,-1.77349 60.66773,0 56.36547,7.54504 106.20578,31.935131 145.56298,71.233388 38.22481,38.167572 62.44433,86.362232 70.69339,140.673512 2.70622,17.81754 2.69568,52.33105 -0.0216,70.41787 -8.13351,54.14033 -32.50559,102.83874 -70.51469,140.89709 -10.8144,10.82844 -31.7313,27.9079 -43.40154,35.43908 -9.63071,6.21501 -28.91142,15.86859 -42.53016,21.29428 -31.58489,12.58339 -76.65001,18.63266 -112.8727,15.15136 z"
     style="fill:url(#radialGradient822);fill-opacity:1;stroke-width:1.08335221" />
  <path
     inkscape:connector-curvature="0"
     id="path2990"
     d="m 329.08475,512.16766 c -5.07489,-7.32306 -23.51785,-23.94721 -32.67094,-29.44899 -18.2516,-10.97074 -36.94021,-16.54819 -59.35325,-17.71345 -26.43557,-1.37441 -50.61422,5.73264 -75.05003,22.06013 l -8.96558,5.9906 -9.45142,-5.75563 C 128.52419,478.12355 113.49518,466.23283 99.150284,452.13754 89.823743,442.9733 86.022055,438.53241 86.48055,437.33758 c 0.891416,-2.323 12.345927,-11.38089 24.40902,-19.30195 12.09284,-7.94057 34.94155,-19.25863 48.14189,-23.84696 36.14848,-12.56493 80.27038,-15.56977 117.57146,-8.007 51.47538,10.43659 97.47644,38.89966 130.97647,81.0414 4.23092,5.32234 7.69261,10.57979 7.69261,11.68318 0,3.81195 -26.80607,19.21635 -48.20918,27.70394 -13.05375,5.17657 -28.56812,9.97855 -32.23905,9.97855 -1.90718,0 -3.55481,-1.26925 -5.73902,-4.42108 z m 34.13598,-150.35377 c -25.41731,-12.69172 -49.81747,-20.15728 -80.65938,-24.67879 -9.78917,-1.43514 -19.9575,-1.90722 -41.16737,-1.91133 -29.91591,-0.005 -45.21697,1.3022 -74.80351,6.39445 -10.65869,1.8345 -16.37456,2.36032 -18.62909,1.71372 -13.46896,-3.86283 -16.38836,-17.45681 -5.68346,-26.46441 6.65545,-5.60018 28.74545,-10.2695 62.28209,-13.16494 63.0018,-5.43938 122.66198,4.51222 167.84796,27.99784 25.56737,13.28875 32.62895,27.59668 17.94693,36.36356 -2.08545,1.24527 -5.25426,2.24066 -7.0418,2.21198 -1.79981,-0.0288 -10.76549,-3.80484 -20.09237,-8.46208 z m 36.88433,-63.67057 c -34.98144,-18.95172 -69.22033,-29.41028 -115.377,-35.2429 -13.90573,-1.75721 -65.28389,-1.76405 -81.79309,-0.0108 -18.96794,2.01425 -38.46429,4.46688 -49.35486,6.20878 -13.32378,2.13109 -19.23878,1.99147 -24.265,-0.5727 -8.29613,-4.23237 -11.51972,-12.53799 -8.21987,-21.17852 4.11882,-10.78498 17.05317,-16.00345 52.04755,-20.99906 66.43319,-9.48362 126.93744,-6.04249 181.1384,10.3021 24.495,7.3866 50.27089,19.23507 64.3058,29.55961 16.39839,12.0632 18.63779,25.51572 5.62164,33.7703 -7.53683,4.77974 -12.60341,4.39366 -24.10357,-1.83673 z m 34.49485,-73.52982 c -45.36315,-24.53347 -87.05318,-37.11597 -146.08012,-44.08853 -15.79128,-1.86536 -66.67071,-1.50241 -87.75152,0.62597 -20.73671,2.09365 -43.48462,5.27555 -59.36853,8.30429 -19.19545,3.66019 -26.19114,2.36664 -33.99156,-6.28526 -9.730953,-10.79318 -4.80769,-25.84512 11.0762,-33.86329 10.27869,-5.18866 30.80972,-9.46183 66.03361,-13.74371 23.02461,-2.79891 93.37731,-2.76739 116.46035,0.0522 59.69573,7.29176 114.77658,24.50393 147.64444,46.13728 19.0319,12.52665 25.75436,24.88678 19.54469,35.93544 -3.65565,6.50426 -13.09241,11.8125 -20.99984,11.8125 -2.12926,0 -7.11979,-1.94054 -12.56772,-4.88691 z"
     style="fill:#1f1f1f;fill-opacity:0.85185188;stroke-width:1.08335221" />
</svg>
