<?xml version="1.0" encoding="UTF-8" standalone="no"?>
<!-- Created with Inkscape (http://www.inkscape.org/) -->

<svg
   xmlns:dc="http://purl.org/dc/elements/1.1/"
   xmlns:cc="http://creativecommons.org/ns#"
   xmlns:rdf="http://www.w3.org/1999/02/22-rdf-syntax-ns#"
   xmlns:svg="http://www.w3.org/2000/svg"
   xmlns="http://www.w3.org/2000/svg"
   xmlns:xlink="http://www.w3.org/1999/xlink"
   xmlns:sodipodi="http://sodipodi.sourceforge.net/DTD/sodipodi-0.dtd"
   xmlns:inkscape="http://www.inkscape.org/namespaces/inkscape"
   id="svg2"
   version="1.1"
   inkscape:version="0.92.2 5c3e80d, 2017-08-06"
   width="546.13336"
   height="546.13336"
   sodipodi:docname="spotify-client.svg">
  <metadata
     id="metadata8">
    <rdf:RDF>
      <cc:Work
         rdf:about="">
        <dc:format>image/svg+xml</dc:format>
        <dc:type
           rdf:resource="http://purl.org/dc/dcmitype/StillImage" />
        <dc:title />
      </cc:Work>
    </rdf:RDF>
  </metadata>
  <defs
     id="defs6">
    <linearGradient
       inkscape:collect="always"
       id="linearGradient820">
      <stop
         style="stop-color:#00ed00;stop-opacity:1"
         offset="0"
         id="stop816" />
      <stop
         style="stop-color:#00cc00;stop-opacity:1"
         offset="1"
         id="stop818" />
    </linearGradient>
    <radialGradient
       inkscape:collect="always"
       xlink:href="#linearGradient820"
       id="radialGradient822"
       cx="275.43976"
       cy="273.32149"
       fx="275.43976"
       fy="273.32149"
       r="244.72523"
       gradientTransform="matrix(1,0,0,1.000609,0,-0.16645908)"
       gradientUnits="userSpaceOnUse" />
  </defs>
  <sodipodi:namedview
     pagecolor="#ffffff"
     bordercolor="#666666"
     borderopacity="1"
     objecttolerance="10"
     gridtolerance="10"
     guidetolerance="10"
     inkscape:pageopacity="0"
     inkscape:pageshadow="2"
     inkscape:window-width="1208"
     inkscape:window-height="701"
     id="namedview4"
     showgrid="false"
     inkscape:zoom="0.65186406"
     inkscape:cx="403.03024"
     inkscape:cy="308.70316"
     inkscape:window-x="15"
     inkscape:window-y="0"
     inkscape:window-maximized="0"
     inkscape:current-layer="svg2"
     inkscape:pagecheckerboard="true" />
  <path
     inkscape:connector-curvature="0"
     id="path2994"
     d="M 252.98079,517.23792 C 204.13871,512.54378 157.76538,493.80316 119.96615,463.48338 79.773709,431.24395 47.114093,377.48737 36.033559,325.33333 31.903351,305.89321 30.71453,294.21141 30.71453,273.06667 c 0,-29.3187 3.639221,-51.8057 12.774293,-78.93334 C 73.274189,105.68235 151.04831,42.401963 245.51412,29.756843 c 13.04491,-1.746176 46.68843,-1.746176 59.73334,0 55.49734,7.428832 104.57004,31.443274 143.32105,70.136266 37.6361,37.579731 61.48258,85.032111 69.60461,138.506891 2.66453,17.54313 2.65415,51.52507 -0.0212,69.33333 -8.00824,53.30647 -32.00494,101.25484 -69.42863,138.72703 -10.64785,10.66166 -31.24258,27.47806 -42.73308,34.89326 -9.48237,6.11927 -28.46613,15.62418 -41.87512,20.96631 -31.09843,12.38958 -75.46947,18.34568 -111.13427,14.91799 z"
     style="fill:url(#radialGradient822);stroke-width:1.06666672;fill-opacity:1" />
  <path
     inkscape:connector-curvature="0"
     id="path2990"
     d="M 329.00685,506.21877 C 324.01012,499.00849 305.85122,482.64038 296.8391,477.22334 278.86861,466.42156 260.46784,460.93001 238.4,459.7827 c -26.02842,-1.35323 -49.83468,5.64436 -73.89414,21.72037 l -8.82749,5.89833 -9.30585,-5.66699 c -14.83725,-9.03542 -29.63479,-20.74301 -43.75875,-34.62119 -9.182896,-9.02311 -12.926032,-13.3956 -12.474598,-14.57203 0.877686,-2.28722 12.155778,-11.2056 24.033088,-19.00466 11.90659,-7.81828 34.40338,-18.96201 47.40041,-23.47968 35.59174,-12.37141 79.03409,-15.32997 115.76066,-7.88368 50.68257,10.27586 95.97513,38.30054 128.9592,79.79322 4.16577,5.24038 7.57414,10.41685 7.57414,11.50324 0,3.75324 -26.3932,18.92039 -47.46667,27.27725 -12.8527,5.09685 -28.12814,9.82487 -31.74252,9.82487 -1.87781,0 -3.50006,-1.2497 -5.65063,-4.35298 z M 362.61707,358.1807 C 337.59124,345.68446 313.56689,338.33389 283.2,333.88201 c -9.63841,-1.41303 -19.65012,-1.87785 -40.53333,-1.88189 -29.45515,-0.005 -44.52054,1.28214 -73.6514,6.29595 -10.49452,1.80626 -16.12237,2.32397 -18.34218,1.68734 -13.26151,-3.80335 -16.13595,-17.18795 -5.59591,-26.05682 6.55293,-5.51393 28.30272,-10.11132 61.32282,-12.96217 62.03148,-5.35561 120.77279,4.44272 165.26281,27.56661 25.17361,13.0841 32.12641,27.17166 17.67052,35.80351 -2.05333,1.22608 -5.17333,2.20614 -6.93333,2.17791 -1.77209,-0.0284 -10.59969,-3.74624 -19.78293,-8.33175 z m 36.31626,-62.68993 c -34.44266,-18.65983 -68.15423,-28.95732 -113.6,-34.7001 -13.69155,-1.73015 -64.27839,-1.73687 -80.53333,-0.0107 -18.6758,1.98323 -37.87188,4.39808 -48.59471,6.11315 -13.11858,2.09827 -18.94247,1.96081 -23.89128,-0.56388 -8.16836,-4.16718 -11.3423,-12.34488 -8.09327,-20.85233 4.05538,-10.61887 16.79052,-15.75697 51.24593,-20.67563 65.41001,-9.33757 124.98238,-5.94944 178.34856,10.14343 24.11772,7.27282 49.49662,18.9388 63.31537,29.10433 16.14584,11.8774 18.35074,25.12273 5.53506,33.25018 -7.42075,4.70612 -12.4093,4.32598 -23.73233,-1.80844 z m 33.96357,-72.39734 c -44.66448,-24.15561 -85.71241,-36.54431 -143.83023,-43.40949 -15.54807,-1.83662 -65.64388,-1.47926 -86.4,0.61634 -20.41734,2.06139 -42.81488,5.19429 -58.45415,8.17638 -18.89982,3.60382 -25.78776,2.33019 -33.46804,-6.18846 -9.58108,-10.62695 -4.73364,-25.44706 10.90562,-33.34174 10.12037,-5.10874 30.3352,-9.31609 65.01657,-13.53202 22.67,-2.75581 91.93914,-2.72477 114.66666,0.0514 58.77631,7.17945 113.00882,24.12652 145.37046,45.42668 18.73877,12.33371 25.3577,24.50348 19.24366,35.38197 -3.59933,6.40408 -12.89075,11.63058 -20.67639,11.63058 -2.09648,0 -7.01014,-1.91067 -12.37416,-4.81166 z"
     style="fill:#2f2f2f;stroke-width:1.06666672;fill-opacity:0.85185188" />
</svg>
