<?xml version="1.0" encoding="UTF-8" standalone="no"?>
<svg
   xmlns:dc="http://purl.org/dc/elements/1.1/"
   xmlns:cc="http://creativecommons.org/ns#"
   xmlns:rdf="http://www.w3.org/1999/02/22-rdf-syntax-ns#"
   xmlns:svg="http://www.w3.org/2000/svg"
   xmlns="http://www.w3.org/2000/svg"
   xmlns:xlink="http://www.w3.org/1999/xlink"
   xmlns:sodipodi="http://sodipodi.sourceforge.net/DTD/sodipodi-0.dtd"
   xmlns:inkscape="http://www.inkscape.org/namespaces/inkscape"
   width="32"
   height="32"
   version="1"
   id="svg12"
   sodipodi:docname="youtube.svg"
   inkscape:version="0.92.4 5da689c313, 2019-01-14">
  <metadata
     id="metadata18">
    <rdf:RDF>
      <cc:Work
         rdf:about="">
        <dc:format>image/svg+xml</dc:format>
        <dc:type
           rdf:resource="http://purl.org/dc/dcmitype/StillImage" />
      </cc:Work>
    </rdf:RDF>
  </metadata>
  <defs
     id="defs16">
    <linearGradient
       inkscape:collect="always"
       id="linearGradient832">
      <stop
         style="stop-color:#f90800;stop-opacity:1"
         offset="0"
         id="stop828" />
      <stop
         style="stop-color:#c60800;stop-opacity:1"
         offset="1"
         id="stop830" />
    </linearGradient>
    <linearGradient
       inkscape:collect="always"
       xlink:href="#linearGradient832"
       id="linearGradient834"
       x1="13.981358"
       y1="6.5079904"
       x2="14.087599"
       y2="24.245584"
       gradientUnits="userSpaceOnUse" />
  </defs>
  <sodipodi:namedview
     pagecolor="#ffffff"
     bordercolor="#666666"
     borderopacity="1"
     objecttolerance="10"
     gridtolerance="10"
     guidetolerance="10"
     inkscape:pageopacity="0"
     inkscape:pageshadow="2"
     inkscape:window-width="1366"
     inkscape:window-height="720"
     id="namedview14"
     showgrid="false"
     inkscape:zoom="10.429825"
     inkscape:cx="11.236721"
     inkscape:cy="7.7408225"
     inkscape:window-x="0"
     inkscape:window-y="24"
     inkscape:window-maximized="1"
     inkscape:current-layer="svg12" />
  <path
     style="opacity:0.2"
     d="M 13.697671,26.982025 C 9.069712,26.892268 7.1912902,26.813016 6.0426461,26.659053 5.2003012,26.546141 4.7866292,26.436065 4.3200722,26.200682 3.5494983,25.811925 3.0702643,25.269824 2.7244154,24.395704 2.4082114,23.596535 2.2794604,22.961792 2.1613004,21.6195 c -0.133343,-1.514785 -0.143766,-1.789015 -0.157612,-4.149165 -0.01631,-2.775543 0.01652,-3.685064 0.199185,-5.527319 0.095788,-0.965804 0.235396,-1.607662 0.497721,-2.2883106 C 2.9394973,9.0348518 3.1576103,8.6927618 3.5542793,8.3157818 4.0528193,7.8419882 4.6003382,7.5539689 5.2915322,7.4019246 6.3232202,7.1749782 10.986291,6.9999996 16.002407,6.9999996 c 5.016116,0 9.679187,0.1749786 10.710874,0.401925 0.746109,0.1641264 1.293705,0.4672843 1.827987,1.0120007 0.418166,0.4263315 0.633542,0.8137236 0.889847,1.6005967 0.264096,0.810781 0.365379,1.528316 0.515445,3.651661 0.07126,1.008346 0.07125,5.650096 0,6.657946 -0.08338,1.179026 -0.185696,2.228978 -0.253827,2.604671 -0.175154,0.96589 -0.519162,1.87023 -0.907011,2.384407 -0.266098,0.352765 -0.791392,0.773091 -1.230649,0.984729 -0.444787,0.214304 -0.86856,0.320549 -1.551724,0.389055 -2.116947,0.212278 -8.58142,0.367272 -12.30565,0.295034 z"
     id="path2" />
  <path
     style="fill:url(#linearGradient834);fill-opacity:1;stroke-width:1.12616241"
     d="M 13.507885,27.695532 C 8.4984335,27.590367 6.4651693,27.497511 5.22184,27.31712 4.3100588,27.184825 3.862287,27.055855 3.3572706,26.780066 2.5231767,26.324575 2.0044384,25.689415 1.6300804,24.665246 1.287811,23.728892 1.1484468,22.985191 1.0205467,21.412481 0.87621191,19.637668 0.86492969,19.316366 0.84994242,16.551072 0.83228785,13.299081 0.86782414,12.233433 1.0655465,10.074937 1.1692306,8.9433441 1.3203468,8.1913055 1.6042959,7.393817 1.862892,6.6675599 2.0989845,6.2667469 2.5283518,5.8250548 3.0679875,5.2699301 3.6606396,4.9324696 4.4088102,4.7543255 5.5255424,4.4884217 10.573,4.2834062 16.002605,4.2834062 c 5.429605,0 10.477065,0.2050155 11.593795,0.4709193 0.807613,0.1923001 1.400348,0.5474979 1.978672,1.18572 0.452636,0.4995152 0.685765,0.9534068 0.963199,1.875354 0.285865,0.9499588 0.395499,1.790665 0.557934,4.2785035 0.07712,1.181438 0.07711,6.619987 0,7.800844 -0.09026,1.381417 -0.201003,2.611602 -0.27475,3.051787 -0.189592,1.131696 -0.561958,2.191272 -0.981779,2.793712 -0.288033,0.413323 -0.856627,0.9058 -1.332093,1.153768 -0.481451,0.251093 -0.940158,0.375574 -1.679636,0.45584 -2.291452,0.248718 -9.288805,0.430317 -13.320031,0.345678 z"
     id="path4"
     inkscape:connector-curvature="0" />
  <path
     style="opacity:0.2;stroke-width:1.06120801"
     d="m 16.093114,19.436861 c 4.211518,-2.396156 4.120964,-2.3436 4.120964,-2.391707 0,-0.04502 -7.371679,-4.281178 -7.407622,-4.256801 -0.02429,0.01648 -0.02879,8.455316 -0.0049,8.481945 0.0091,0.0098 0.0345,0.0102 0.05668,7.79e-4 0.02219,-0.0095 1.477758,-0.834798 3.234518,-1.834309 z"
     id="path6"
     inkscape:connector-curvature="0" />
  <path
     style="fill:#ffffff;stroke-width:1.08243215"
     d="m 16.084976,18.423714 c 4.295749,-2.444078 4.203384,-2.390473 4.203384,-2.43954 0,-0.04592 -7.519113,-4.366803 -7.555775,-4.341938 -0.02478,0.01681 -0.02937,8.624423 -0.005,8.651585 0.0093,0.01 0.03519,0.0104 0.05781,7.92e-4 0.02263,-0.0097 1.507313,-0.851494 3.299208,-1.870994 z"
     id="path8"
     inkscape:connector-curvature="0" />
</svg>
