<?xml version="1.0" encoding="UTF-8" standalone="no"?>
<!-- Created with Inkscape (http://www.inkscape.org/) -->

<svg
   xmlns:dc="http://purl.org/dc/elements/1.1/"
   xmlns:cc="http://creativecommons.org/ns#"
   xmlns:rdf="http://www.w3.org/1999/02/22-rdf-syntax-ns#"
   xmlns:svg="http://www.w3.org/2000/svg"
   xmlns="http://www.w3.org/2000/svg"
   xmlns:xlink="http://www.w3.org/1999/xlink"
   xmlns:sodipodi="http://sodipodi.sourceforge.net/DTD/sodipodi-0.dtd"
   xmlns:inkscape="http://www.inkscape.org/namespaces/inkscape"
   width="512"
   height="512"
   id="svg2"
   version="1.1"
   inkscape:version="0.92.4 5da689c313, 2019-01-14"
   sodipodi:docname="keepassx2.svg"
   inkscape:export-filename="/home/alecive/Scrivania/firefoxTest1.png"
   inkscape:export-xdpi="100"
   inkscape:export-ydpi="100">
  <sodipodi:namedview
     id="base"
     pagecolor="#ffffff"
     bordercolor="#666666"
     borderopacity="1.0"
     inkscape:pageopacity="0.0"
     inkscape:pageshadow="2"
     inkscape:zoom="0.45862345"
     inkscape:cx="-176.47445"
     inkscape:cy="253.11659"
     inkscape:document-units="px"
     inkscape:current-layer="svg2"
     showgrid="false"
     inkscape:window-width="1366"
     inkscape:window-height="720"
     inkscape:window-x="0"
     inkscape:window-y="24"
     inkscape:window-maximized="1"
     inkscape:object-paths="false"
     inkscape:snap-intersection-paths="false"
     inkscape:object-nodes="true"
     inkscape:snap-smooth-nodes="true"
     inkscape:snap-nodes="true"
     inkscape:pagecheckerboard="true" />
  <defs
     id="defs4">
    <linearGradient
       inkscape:collect="always"
       id="linearGradient887">
      <stop
         style="stop-color:#86be00;stop-opacity:1"
         offset="0"
         id="stop883" />
      <stop
         style="stop-color:#008a37;stop-opacity:0.98431373"
         offset="1"
         id="stop885" />
    </linearGradient>
    <linearGradient
       x1="19.244999"
       y1="21.030804"
       x2="19.360001"
       gradientUnits="userSpaceOnUse"
       y2="44.984001"
       id="linearGradient2460">
      <stop
         offset="0"
         style="stop-color:#00bdf0;stop-opacity:1;"
         id="stop3602" />
      <stop
         offset="1"
         style="stop-color:#0093dc;stop-opacity:1;"
         id="stop3604" />
    </linearGradient>
    <linearGradient
       inkscape:collect="always"
       xlink:href="#ButtonShadow-0-1-1-5-9"
       id="linearGradient4114-2-6"
       gradientUnits="userSpaceOnUse"
       gradientTransform="matrix(1.0317796,0,0,1.0317796,-830.86406,592.67791)"
       x1="1012.5133"
       y1="484.41721"
       x2="1006.8082"
       y2="20.625916" />
    <linearGradient
       x1="45.447727"
       y1="92.539597"
       x2="45.447727"
       y2="7.0165396"
       id="ButtonShadow-0-1-1-5-9"
       gradientUnits="userSpaceOnUse"
       gradientTransform="matrix(1.0058652,0,0,0.994169,100,0)">
      <stop
         id="stop3750-8-9-3-6-4"
         style="stop-color:#000000;stop-opacity:1"
         offset="0" />
      <stop
         id="stop3752-5-6-4-2-9"
         style="stop-color:#000000;stop-opacity:0.58823532"
         offset="1" />
    </linearGradient>
    <linearGradient
       inkscape:collect="always"
       xlink:href="#ButtonShadow-0-1-1-5-9"
       id="linearGradient4112-2-6"
       gradientUnits="userSpaceOnUse"
       gradientTransform="matrix(1.0402541,0,0,1.0402541,-837.95116,592.51825)"
       x1="1012.5133"
       y1="484.41721"
       x2="1006.8082"
       y2="20.625916" />
    <linearGradient
       inkscape:collect="always"
       xlink:href="#ButtonShadow-0-1-1-5-9"
       id="linearGradient4110-6-7"
       gradientUnits="userSpaceOnUse"
       gradientTransform="matrix(1.023305,0,0,1.023305,-823.77704,592.83757)"
       x1="1012.5133"
       y1="484.41721"
       x2="1006.8082"
       y2="20.625916" />
    <linearGradient
       inkscape:collect="always"
       xlink:href="#ButtonShadow-0-1-1-5-9"
       id="linearGradient4116-6-3"
       gradientUnits="userSpaceOnUse"
       gradientTransform="matrix(1.0148305,0,0,1.0148305,-816.68996,592.99723)"
       x1="1012.5133"
       y1="484.41721"
       x2="1006.8082"
       y2="20.625916" />
    <linearGradient
       y2="20.625916"
       x2="1006.8082"
       y1="484.41721"
       x1="1012.5133"
       gradientTransform="matrix(1.0074153,0,0,1.0074153,-810.48879,593.1369)"
       gradientUnits="userSpaceOnUse"
       id="linearGradient5342-3"
       xlink:href="#ButtonShadow-0-1-1-5-9"
       inkscape:collect="always" />
    <linearGradient
       inkscape:collect="always"
       xlink:href="#linearGradient3737-9"
       id="linearGradient4084-8"
       gradientUnits="userSpaceOnUse"
       gradientTransform="translate(778.59979,-360.55963)"
       x1="993.43896"
       y1="51.511765"
       x2="988.78552"
       y2="363.73825" />
    <linearGradient
       id="linearGradient3737-9">
      <stop
         id="stop3739-7"
         style="stop-color:#ffffff;stop-opacity:1"
         offset="0" />
      <stop
         id="stop3741-4"
         style="stop-color:#ffffff;stop-opacity:0"
         offset="1" />
    </linearGradient>
    <linearGradient
       inkscape:collect="always"
       xlink:href="#linearGradient4046-3"
       id="linearGradient4086-12"
       gradientUnits="userSpaceOnUse"
       x1="1764.6487"
       y1="155.59685"
       x2="1763.6903"
       y2="-55.941216" />
    <linearGradient
       id="linearGradient4046-3">
      <stop
         id="stop4048-7"
         style="stop-color:#000000;stop-opacity:1;"
         offset="0" />
      <stop
         id="stop4050-73"
         style="stop-color:#ffffff;stop-opacity:0.2"
         offset="1" />
    </linearGradient>
    <linearGradient
       y2="32"
       x2="272"
       y1="288"
       x1="272"
       gradientTransform="translate(0,-4)"
       gradientUnits="userSpaceOnUse"
       id="linearGradient3876"
       xlink:href="#outerBackgroundGradient"
       inkscape:collect="always" />
    <linearGradient
       id="outerBackgroundGradient">
      <stop
         id="stop3864-8-6"
         offset="0"
         style="stop-color:#007dbb;stop-opacity:1;" />
      <stop
         id="stop3866-9-1"
         offset="1"
         style="stop-color:#00abd7;stop-opacity:1;" />
    </linearGradient>
    <linearGradient
       inkscape:collect="always"
       xlink:href="#outerBackgroundGradient"
       id="linearGradient5589"
       gradientUnits="userSpaceOnUse"
       gradientTransform="translate(571.12383,-178.05409)"
       x1="272"
       y1="288"
       x2="272"
       y2="32" />
    <linearGradient
       y2="32"
       x2="272"
       y1="288"
       x1="272"
       gradientTransform="translate(571.12383,-178.05409)"
       gradientUnits="userSpaceOnUse"
       id="linearGradient5614"
       xlink:href="#outerBackgroundGradient"
       inkscape:collect="always" />
    <radialGradient
       gradientUnits="userSpaceOnUse"
       r="236"
       fy="151.78598"
       fx="256"
       cy="151.78598"
       cx="256"
       id="radialGradient6124"
       xlink:href="#linearGradient2460"
       inkscape:collect="always" />
    <linearGradient
       inkscape:collect="always"
       xlink:href="#linearGradient3737-9"
       id="linearGradient7749"
       gradientUnits="userSpaceOnUse"
       gradientTransform="translate(778.59979,-360.55963)"
       x1="993.43896"
       y1="51.511765"
       x2="988.78552"
       y2="363.73825" />
    <linearGradient
       inkscape:collect="always"
       xlink:href="#linearGradient4046-3"
       id="linearGradient7751"
       gradientUnits="userSpaceOnUse"
       x1="1764.6487"
       y1="155.59685"
       x2="1763.6903"
       y2="-55.941216" />
    <linearGradient
       inkscape:collect="always"
       xlink:href="#linearGradient2460-9"
       id="linearGradient3157"
       gradientUnits="userSpaceOnUse"
       gradientTransform="matrix(12.102564,0,0,12.102564,-34.468255,-46.187105)"
       x1="18.930269"
       y1="6.2951212"
       x2="19.360001"
       y2="36.643665" />
    <linearGradient
       id="linearGradient2460-9"
       y2="44.984001"
       gradientUnits="userSpaceOnUse"
       x2="19.360001"
       y1="21.030804"
       x1="19.244999">
      <stop
         id="stop3602-6"
         style="stop-color:#fafafa;stop-opacity:1;"
         offset="0" />
      <stop
         id="stop3604-4"
         style="stop-color:#f0f0f0;stop-opacity:1;"
         offset="1" />
    </linearGradient>
    <radialGradient
       gradientUnits="userSpaceOnUse"
       r="236"
       fy="151.78598"
       fx="256"
       cy="151.78598"
       cx="256"
       id="radialGradient6124-5"
       xlink:href="#linearGradient2460-7"
       inkscape:collect="always" />
    <linearGradient
       x1="19.244999"
       y1="21.030804"
       x2="19.360001"
       gradientUnits="userSpaceOnUse"
       y2="44.984001"
       id="linearGradient2460-7">
      <stop
         offset="0"
         style="stop-color:#00bdf0;stop-opacity:1;"
         id="stop3602-2" />
      <stop
         offset="1"
         style="stop-color:#0093dc;stop-opacity:1;"
         id="stop3604-5" />
    </linearGradient>
    <radialGradient
       gradientTransform="translate(-20,-20)"
       r="236"
       fy="151.78598"
       fx="256"
       cy="151.78598"
       cx="256"
       gradientUnits="userSpaceOnUse"
       id="radialGradient8295"
       xlink:href="#linearGradient2460-7"
       inkscape:collect="always" />
    <linearGradient
       y2="363.73825"
       x2="988.78552"
       y1="51.511765"
       x1="993.43896"
       gradientTransform="translate(778.59979,-360.55963)"
       gradientUnits="userSpaceOnUse"
       id="linearGradient4084-8-0"
       xlink:href="#linearGradient3737-9-9"
       inkscape:collect="always" />
    <linearGradient
       id="linearGradient3737-9-9">
      <stop
         offset="0"
         style="stop-color:#ffffff;stop-opacity:1"
         id="stop3739-7-4" />
      <stop
         offset="1"
         style="stop-color:#ffffff;stop-opacity:0"
         id="stop3741-4-1" />
    </linearGradient>
    <linearGradient
       y2="-55.941216"
       x2="1763.6903"
       y1="155.59685"
       x1="1764.6487"
       gradientUnits="userSpaceOnUse"
       id="linearGradient4086-12-7"
       xlink:href="#linearGradient4046-3-0"
       inkscape:collect="always" />
    <linearGradient
       id="linearGradient4046-3-0">
      <stop
         offset="0"
         style="stop-color:#000000;stop-opacity:1;"
         id="stop4048-7-4" />
      <stop
         offset="1"
         style="stop-color:#ffffff;stop-opacity:0.2"
         id="stop4050-73-8" />
    </linearGradient>
    <clipPath
       id="clipPath-640338618">
      <g
         id="g3051"
         transform="translate(0,-1004.3622)">
        <path
           id="path3053"
           fill="#1890d0"
           transform="matrix(15.333333,0,0,11.5,414.99999,878.8622)"
           d="m -24 13 c 0 1.105 -0.672 2 -1.5 2 -0.828 0 -1.5 -0.895 -1.5 -2 0 -1.105 0.672 -2 1.5 -2 0.828 0 1.5 0.895 1.5 2 z" />
      </g>
    </clipPath>
    <clipPath
       id="clipPath-632768364">
      <g
         id="g3046"
         transform="translate(0,-1004.3622)">
        <path
           id="path3048"
           fill="#1890d0"
           transform="matrix(15.333333,0,0,11.5,414.99999,878.8622)"
           d="m -24 13 c 0 1.105 -0.672 2 -1.5 2 -0.828 0 -1.5 -0.895 -1.5 -2 0 -1.105 0.672 -2 1.5 -2 0.828 0 1.5 0.895 1.5 2 z" />
      </g>
    </clipPath>
    <linearGradient
       gradientTransform="matrix(0,-1,1,0,-1.5e-6,47.999998)"
       gradientUnits="userSpaceOnUse"
       x2="47"
       x1="1"
       id="linearGradient3764">
      <stop
         id="stop3041"
         stop-opacity="1"
         stop-color="#45aa2a" />
      <stop
         id="stop3043"
         stop-opacity="1"
         stop-color="#4aba2e"
         offset="1" />
    </linearGradient>
    <linearGradient
       inkscape:collect="always"
       xlink:href="#linearGradient887"
       id="linearGradient889"
       x1="152.90695"
       y1="137.37306"
       x2="253.15909"
       y2="386.72983"
       gradientUnits="userSpaceOnUse"
       gradientTransform="matrix(1.055,0,0,1.055,-7.9094426,-15.683038)" />
  </defs>
  <metadata
     id="metadata7">
    <rdf:RDF>
      <cc:Work
         rdf:about="">
        <dc:format>image/svg+xml</dc:format>
        <dc:type
           rdf:resource="http://purl.org/dc/dcmitype/StillImage" />
        <dc:title></dc:title>
      </cc:Work>
    </rdf:RDF>
  </metadata>
  <g
     id="layer1"
     inkscape:groupmode="layer"
     inkscape:label="Livello 1"
     transform="translate(0,-540.36218)" />
  <g
     id="g2036"
     transform="matrix(1.1605,0,0,0.4688842,86.233864,256.35289)">
    <g
       id="g3712"
       style="opacity:0.4"
       transform="matrix(1.0526,0,0,1.2857,-1.2632,-13.429)" />
  </g>
  <g
     transform="matrix(1.055,0,0,1.055,88.765864,229.86079)"
     id="g3541" />
  <g
     transform="matrix(1.055,0,0,1.055,88.765864,229.86079)"
     id="g3536" />
  <g
     id="g4103"
     transform="matrix(1.055,0,0,1.055,-26.720907,-638.82487)" />
  <g
     id="g4076"
     transform="matrix(1.055,0,0,1.055,-652.89954,-387.57782)">
    <g
       transform="translate(-926.66758,684.38448)"
       id="g4038" />
  </g>
  <rect
     style="fill:#003551;fill-opacity:1;stroke:none;stroke-width:11.5;stroke-miterlimit:4;stroke-dasharray:none;stroke-opacity:1"
     id="rect3069-5"
     width="478.22089"
     height="467.55988"
     x="22.995979"
     y="35.791626"
     ry="49.390129" />
  <rect
     style="fill:url(#linearGradient889);fill-opacity:1;stroke:none;stroke-width:11.5;stroke-miterlimit:4;stroke-dasharray:none;stroke-opacity:1"
     id="rect3069"
     width="478.22089"
     height="467.55988"
     x="22.996014"
     y="21.791622"
     ry="49.390129" />
  <g
     id="g3067"
     transform="matrix(9.7071364,0,0,9.7071364,722.45123,-2.9677765)" />
  <path
     style="fill:#0f1929;fill-opacity:0.52238804;fill-rule:nonzero;stroke:none;stroke-width:12.21408272"
     inkscape:connector-curvature="0"
     d="m 332.52175,114.79918 c -43.32334,0 -78.53655,35.16434 -78.53655,78.53655 0,13.54542 3.48102,26.33356 9.49035,37.44837 0.0489,0.0489 -0.0489,0.14658 0,0.19542 l -145.6163,145.56745 v 31.43905 h 31.43905 l 10.44304,-10.4919 v -20.94715 h 20.94716 l 10.49189,-10.44304 h 20.94715 l 10.4064,-10.4919 v -20.94715 l 10.49189,-10.44304 H 253.973 v -20.94716 l 40.89274,-40.89275 c 0.0488,0 0.19542,-0.0488 0.24428,0 11.11481,6.05819 23.90297,9.4415 37.41173,9.4415 43.2745,0 78.58542,-35.1155 78.58542,-78.4877 v -0.32978 c -0.19542,-43.32336 -35.31092,-78.24342 -78.58542,-78.24342 m 15.64624,41.94317 c 11.54232,0 20.89831,9.40484 20.94717,20.94715 0,11.59116 -9.40485,20.94715 -20.94717,20.94715 -11.5423,0 -20.94715,-9.35599 -20.94715,-20.94715 0,-11.54231 9.40485,-20.94715 20.94715,-20.94715 m 0,0"
     id="path3090-3" />
  <g
     id="g3083"
     transform="matrix(12.214083,0,0,12.214083,-32.917545,-40.209822)">
    <g
       clip-path="url(#clipPath-640338618)"
       id="g3085">
      <!-- color: #4aba2e -->
      <g
         id="g3087">
        <path
           style="fill:#000000;fill-opacity:0.54726368;fill-rule:nonzero;stroke:none"
           inkscape:connector-curvature="0"
           d="m 12,14 v 2.75 L 31.253906,36 H 34 V 33.25 L 14.75,14 Z m 0,0"
           id="SVGCleanerId_0" />
        <path
           style="fill:#f9f9f9;fill-opacity:1;fill-rule:nonzero;stroke:none"
           inkscape:connector-curvature="0"
           d="m 29.410255,11.508765 c -3.547,0 -6.43,2.879 -6.43,6.43 0,1.109 0.285,2.156 0.777,3.066 0.004,0.004 -0.004,0.012 0,0.016 l -11.922,11.918 v 2.574 h 2.574 l 0.855,-0.859 v -1.715 h 1.715 l 0.859,-0.855 h 1.715 l 0.852,-0.859 v -1.715 l 0.859,-0.855 h 1.715 v -1.715 l 3.348,-3.348 c 0.004,0 0.016,-0.004 0.02,0 0.91,0.496 1.957,0.773 3.063,0.773 3.543,0 6.434,-2.875 6.434,-6.426 v -0.027 c -0.016,-3.547 -2.891,-6.406 -6.434,-6.406 m 1.281,3.434 c 0.945,0 1.711,0.77 1.715,1.715 0,0.949 -0.77,1.715 -1.715,1.715 -0.945,0 -1.715,-0.766 -1.715,-1.715 0,-0.945 0.77,-1.715 1.715,-1.715 m 0,0"
           id="path3090" />
      </g>
    </g>
  </g>
</svg>
