<?xml version="1.0" encoding="UTF-8" standalone="no"?>
<svg
   xmlns:dc="http://purl.org/dc/elements/1.1/"
   xmlns:cc="http://creativecommons.org/ns#"
   xmlns:rdf="http://www.w3.org/1999/02/22-rdf-syntax-ns#"
   xmlns:svg="http://www.w3.org/2000/svg"
   xmlns="http://www.w3.org/2000/svg"
   xmlns:sodipodi="http://sodipodi.sourceforge.net/DTD/sodipodi-0.dtd"
   xmlns:inkscape="http://www.inkscape.org/namespaces/inkscape"
   width="64"
   height="64"
   version="1.1"
   id="svg12"
   sodipodi:docname="brave-browser-beta.svg"
   inkscape:version="0.92.4 (5da689c313, 2019-01-14)">
  <metadata
     id="metadata18">
    <rdf:RDF>
      <cc:Work
         rdf:about="">
        <dc:format>image/svg+xml</dc:format>
        <dc:type
           rdf:resource="http://purl.org/dc/dcmitype/StillImage" />
        <dc:title />
      </cc:Work>
    </rdf:RDF>
  </metadata>
  <defs
     id="defs16" />
  <sodipodi:namedview
     pagecolor="#ffffff"
     bordercolor="#666666"
     borderopacity="1"
     objecttolerance="10"
     gridtolerance="10"
     guidetolerance="10"
     inkscape:pageopacity="0"
     inkscape:pageshadow="2"
     inkscape:window-width="1600"
     inkscape:window-height="829"
     id="namedview14"
     showgrid="false"
     inkscape:zoom="3.6875"
     inkscape:cx="-25.839121"
     inkscape:cy="-0.64180023"
     inkscape:window-x="0"
     inkscape:window-y="0"
     inkscape:window-maximized="1"
     inkscape:current-layer="svg12" />
  <g
     transform="matrix(2.2718383,0,0,2.2718383,-39.843526,-44.248075)"
     id="g10">
    <path
       d="m 28,20.279 c -0.5,0 -2.25,2 -2.5,2 h -1.25 c -0.5,0 -2.25,1.75 -2.25,2.25 v 1.5 c 0,0.25 -1.989,2 -2,2.5 -0.011,0.5 3.5,12.25 4,12.75 0.5,0.5 6,5 7.5,5 h 1 c 1.5,0 7,-4.5 7.5,-5 0.5,-0.5 4.01,-12.25 4,-12.75 -0.011,-0.497 -2,-2.25 -2,-2.5 v -1.5 c 0,-0.5 -1.75,-2.25 -2.25,-2.25 H 38.5 c -0.25,0 -2,-2 -2.5,-2 z"
       id="path6"
       inkscape:connector-curvature="0"
       style="fill:#ff5722;fill-opacity:1;stroke-width:0.66667002" />
    <path
       d="m 32,23.771 c -0.498,0 -0.994,0.171 -1.5,0.508 -1.5,1 -3.5,-0.5 -4,-0.5 -0.5,0 -3.5,3.643 -3.5,5 0,1 3.75,3.3 3.75,4 0,0.5 -0.75,0.74 -0.75,1.801 0,0.699 1,1.949 2,1.949 1,0 3.502,-1.963 3.5,-2.449 v -0.301 c 0,-0.6 -2.25,-1.356 -2.25,-2.5 0,-1 0.75,-1.37 0.75,-2.5 0,-0.972 -2,-1.25 -3.5,-1.5 -0.5,0 1.5,-1.645 4.25,0.133 0.696,0.45 -0.75,2.229 -0.5,3.867 0.375,0.35 1.063,0.525 1.75,0.525 0.688,0 1.375,-0.175 1.75,-0.525 C 34,29.641 32.554,27.862 33.25,27.412 36,25.634 38,27.279 37.5,27.279 c -1.5,0.25 -3.5,0.528 -3.5,1.5 0,1.13 0.75,1.5 0.75,2.5 0,1.144 -2.25,1.9 -2.25,2.5 v 0.301 c -0.002,0.486 2.5,2.449 3.5,2.449 1,0 2,-1.25 2,-1.949 0,-1.06 -0.75,-1.301 -0.75,-1.801 0,-0.7 3.75,-3 3.75,-4 0,-1.357 -3,-5 -3.5,-5 -0.5,0 -2.5,1.5 -4,0.5 -0.506,-0.337 -1,-0.508 -1.5,-0.508 z m 0,11.908 c -1,0 -3.25,1.55 -3.25,1.85 0,0.3 2.25,2.75 3.25,2.75 1,0 3.25,-2.45 3.25,-2.75 0,-0.3 -2.25,-1.85 -3.25,-1.85 z"
       id="path8"
       inkscape:connector-curvature="0"
       style="fill:#f9f9f9;stroke-width:0.77778" />
  </g>
  <circle
     style="fill:#f9ce1d;fill-opacity:1;stroke:#d7b005;stroke-width:2;stroke-miterlimit:4;stroke-dasharray:none;stroke-opacity:1"
     id="path8506"
     cx="48.203388"
     cy="52.677967"
     r="8.0677967" />
  <text
     xml:space="preserve"
     style="font-style:normal;font-weight:normal;font-size:13.27447414px;line-height:1.25;font-family:sans-serif;letter-spacing:0px;word-spacing:0px;fill:#582ced;fill-opacity:1;stroke:#d7b005;stroke-width:0.632;stroke-opacity:1;stroke-miterlimit:4;stroke-dasharray:none;"
     x="44.268234"
     y="56.508274"
     id="text8504"><tspan
       sodipodi:role="line"
       id="tspan8502"
       x="44.268234"
       y="56.508274"
       style="fill:#582ced;fill-opacity:1;stroke-width:0.632;stroke:#d7b005;stroke-opacity:1;stroke-miterlimit:4;stroke-dasharray:none;">β</tspan></text>
</svg>
