<?xml version="1.0" encoding="UTF-8" standalone="no"?>
<!-- Created with Inkscape (http://www.inkscape.org/) -->

<svg
   xmlns:dc="http://purl.org/dc/elements/1.1/"
   xmlns:cc="http://creativecommons.org/ns#"
   xmlns:rdf="http://www.w3.org/1999/02/22-rdf-syntax-ns#"
   xmlns:svg="http://www.w3.org/2000/svg"
   xmlns="http://www.w3.org/2000/svg"
   xmlns:xlink="http://www.w3.org/1999/xlink"
   xmlns:sodipodi="http://sodipodi.sourceforge.net/DTD/sodipodi-0.dtd"
   xmlns:inkscape="http://www.inkscape.org/namespaces/inkscape"
   id="svg2"
   version="1.1"
   inkscape:version="0.92.4 (5da689c313, 2019-01-14)"
   width="512"
   height="512"
   sodipodi:docname="org.gnome.Evince.svg"
   viewBox="0 0 512 512">
  <metadata
     id="metadata8">
    <rdf:RDF>
      <cc:Work
         rdf:about="">
        <dc:format>image/svg+xml</dc:format>
        <dc:type
           rdf:resource="http://purl.org/dc/dcmitype/StillImage" />
        <dc:title />
      </cc:Work>
    </rdf:RDF>
  </metadata>
  <defs
     id="defs6">
    <linearGradient
       inkscape:collect="always"
       id="linearGradient820">
      <stop
         style="stop-color:#d62929;stop-opacity:1"
         offset="0"
         id="stop816" />
      <stop
         style="stop-color:#ff1818;stop-opacity:1"
         offset="1"
         id="stop818" />
    </linearGradient>
    <linearGradient
       inkscape:collect="always"
       xlink:href="#linearGradient820"
       id="linearGradient822"
       x1="196.57001"
       y1="244.35962"
       x2="94.923439"
       y2="75.800835"
       gradientUnits="userSpaceOnUse"
       gradientTransform="matrix(0.93296326,0,0,0.93296326,19.258179,19.227721)" />
  </defs>
  <sodipodi:namedview
     pagecolor="#ffffff"
     bordercolor="#666666"
     borderopacity="1"
     objecttolerance="10"
     gridtolerance="10"
     guidetolerance="10"
     inkscape:pageopacity="0"
     inkscape:pageshadow="2"
     inkscape:window-width="1600"
     inkscape:window-height="829"
     id="namedview4"
     showgrid="false"
     inkscape:zoom="0.65186406"
     inkscape:cx="-40.519118"
     inkscape:cy="105.43475"
     inkscape:window-x="0"
     inkscape:window-y="0"
     inkscape:window-maximized="1"
     inkscape:current-layer="svg2"
     inkscape:document-units="px" />
  <rect
     style="fill:url(#linearGradient822);fill-opacity:1;fill-rule:evenodd;stroke:none;stroke-width:0.93858421"
     id="rect2986"
     width="422.70526"
     height="424.38757"
     x="45.732109"
     y="43.595459"
     ry="44.758366" />
  <path
     d="m 199.57158,92.417931 c -16.06884,-0.28105 -29.93641,15.701139 -26.53915,31.668459 2.2867,24.39855 18.01878,44.19768 30.29543,64.3447 1.38045,7.50268 -2.5764,14.80603 -2.84136,22.25422 -8.00407,43.72845 -20.21511,87.22167 -39.00152,127.34737 -23.2459,10.70181 -49.57209,21.26995 -63.166041,44.33508 -8.629315,16.00322 3.521061,37.60128 21.356621,39.28876 16.54671,2.26319 28.82831,-11.91638 37.87362,-23.79685 9.44395,-12.7793 15.65905,-27.99635 23.51705,-41.73021 47.55405,-19.15163 97.58424,-32.53635 148.65442,-37.6186 20.64969,14.77878 42.52754,32.21445 69.00728,33.26803 15.39162,-0.22904 27.84656,-15.17 26.16031,-30.34496 -0.99169,-13.8168 -13.26586,-23.50591 -25.98203,-26.09841 -20.50855,-6.17793 -42.47802,-2.7943 -63.33942,-2.6445 -40.14548,-32.07827 -77.20571,-68.98621 -106.39805,-111.21537 2.16661,-25.67374 6.51717,-54.07249 -6.85145,-77.42858 -5.07605,-7.366489 -13.6806,-12.417789 -22.74695,-11.622949 m 0.76512,23.316479 c 4.52018,0.8716 4.82102,7.60419 6.08633,11.20447 1.19101,7.33803 1.06102,14.82584 0.97436,22.23689 -5.3831,-10.06174 -12.3757,-20.57292 -11.1302,-32.4992 1.41881,-0.0557 2.67546,-0.77503 4.06951,-0.93968 m 24.90986,100.1223 c 23.92684,29.75069 50.50437,57.14907 79.50852,81.98464 -38.24505,5.83253 -76.24003,15.60334 -112.62675,28.78503 13.95548,-36.4734 24.58054,-74.15515 31.58178,-112.61439 0.51009,0.61531 1.02017,1.2294 1.53026,1.84472 m 149.24872,100.01088 c 9.27682,0.89512 19.98236,0.35779 27.41076,6.75116 0.69703,5.77062 -6.36242,6.61251 -10.12118,4.52389 -7.84314,-2.61851 -15.60209,-5.91052 -22.2604,-10.92715 1.659,-0.10277 3.31182,-0.31571 4.97701,-0.3479 m -231.82763,60.68993 c -4.41123,8.20466 -10.83308,15.94009 -17.52976,21.75033 -2.22852,3.60773 -8.34454,-3.06298 -5.53041,-5.8808 5.81021,-9.09483 15.9549,-13.91586 24.93459,-19.34849 -0.62646,1.16007 -1.25043,2.32013 -1.87814,3.4802"
     inkscape:connector-curvature="0"
     id="path70"
     style="fill:#ffffff;stroke-width:0.93858421" />
</svg>
