<?xml version="1.0" encoding="UTF-8" standalone="no"?>
<!-- Created with Inkscape (http://www.inkscape.org/) -->

<svg
   xmlns:dc="http://purl.org/dc/elements/1.1/"
   xmlns:cc="http://creativecommons.org/ns#"
   xmlns:rdf="http://www.w3.org/1999/02/22-rdf-syntax-ns#"
   xmlns:svg="http://www.w3.org/2000/svg"
   xmlns="http://www.w3.org/2000/svg"
   xmlns:xlink="http://www.w3.org/1999/xlink"
   xmlns:sodipodi="http://sodipodi.sourceforge.net/DTD/sodipodi-0.dtd"
   xmlns:inkscape="http://www.inkscape.org/namespaces/inkscape"
   width="64px"
   height="64px"
   viewBox="0 0 64 64"
   version="1.1"
   id="SVGRoot"
   sodipodi:docname="nautilus.svg"
   inkscape:version="0.92.4 (5da689c313, 2019-01-14)">
  <sodipodi:namedview
     id="base"
     pagecolor="#ffffff"
     bordercolor="#666666"
     borderopacity="1.0"
     inkscape:pageopacity="0.0"
     inkscape:pageshadow="2"
     inkscape:zoom="8"
     inkscape:cx="3.433643"
     inkscape:cy="28.715047"
     inkscape:document-units="px"
     inkscape:current-layer="layer1"
     showgrid="false"
     inkscape:window-width="1600"
     inkscape:window-height="829"
     inkscape:window-x="0"
     inkscape:window-y="0"
     inkscape:window-maximized="1"
     inkscape:grid-bbox="true"
     inkscape:pagecheckerboard="true" />
  <defs
     id="defs4485">
    <linearGradient
       inkscape:collect="always"
       id="linearGradient6019">
      <stop
         style="stop-color:#da4300;stop-opacity:1;"
         offset="0"
         id="stop6015" />
      <stop
         style="stop-color:#da4300;stop-opacity:0;"
         offset="1"
         id="stop6017" />
    </linearGradient>
    <linearGradient
       inkscape:collect="always"
       id="linearGradient6011">
      <stop
         style="stop-color:#f55100;stop-opacity:1;"
         offset="0"
         id="stop6007" />
      <stop
         style="stop-color:#f88c16;stop-opacity:1"
         offset="1"
         id="stop6009" />
    </linearGradient>
    <inkscape:path-effect
       effect="bspline"
       id="path-effect5785"
       is_visible="true"
       weight="33.333333"
       steps="2"
       helper_size="0"
       apply_no_weight="true"
       apply_with_weight="true"
       only_selected="false" />
    <inkscape:path-effect
       effect="bspline"
       id="path-effect5773"
       is_visible="true"
       weight="33.333333"
       steps="2"
       helper_size="0"
       apply_no_weight="true"
       apply_with_weight="true"
       only_selected="false" />
    <inkscape:path-effect
       effect="bspline"
       id="path-effect5769"
       is_visible="true"
       weight="33.333333"
       steps="2"
       helper_size="0"
       apply_no_weight="true"
       apply_with_weight="true"
       only_selected="false" />
    <inkscape:path-effect
       effect="bspline"
       id="path-effect5757"
       is_visible="true"
       weight="33.333333"
       steps="2"
       helper_size="0"
       apply_no_weight="true"
       apply_with_weight="true"
       only_selected="false" />
    <linearGradient
       inkscape:collect="always"
       xlink:href="#linearGradient6011"
       id="linearGradient6013"
       x1="212.96124"
       y1="175.46857"
       x2="258.83487"
       y2="121.68069"
       gradientUnits="userSpaceOnUse" />
    <linearGradient
       inkscape:collect="always"
       xlink:href="#linearGradient6019"
       id="linearGradient6021"
       x1="116.06411"
       y1="189.34739"
       x2="314.40018"
       y2="189.34739"
       gradientUnits="userSpaceOnUse" />
  </defs>
  <metadata
     id="metadata4488">
    <rdf:RDF>
      <cc:Work
         rdf:about="">
        <dc:format>image/svg+xml</dc:format>
        <dc:type
           rdf:resource="http://purl.org/dc/dcmitype/StillImage" />
        <dc:title />
      </cc:Work>
    </rdf:RDF>
  </metadata>
  <g
     id="layer1"
     inkscape:groupmode="layer"
     inkscape:label="Layer 1">
    <g
       id="g5565"
       transform="matrix(0.19302769,0.07537888,-0.07537888,0.19302769,5.1919952,-28.446779)"
       style="fill:#ffffff">
      <title
         id="title5537">Layer 1</title>
      <path
         d="m 284.02701,189.66901 c 0,0 14.85599,-33.049 20.31399,-42.752 5.45801,-9.70301 9.70301,-25.772 3.03202,-44.571 -6.67099,-18.799005 -17.58701,-35.476999 -24.86301,-41.843001 0,0 -44.571,0.606998 -87.323,32.746998 -42.752,32.140003 -60.035,69.737003 -63.977,81.258993 -3.942,11.52199 -16.07,46.69902 -9.703,82.78 6.36701,36.08098 16.676,54.27402 44.268,59.73102 27.59199,5.457 43.662,-9.09702 48.21001,-16.07001 4.548,-6.97299 10.612,-15.16101 3.33499,-30.62399 -7.27701,-15.46298 -8.10199,-27.89401 -2.08,-43.96401 6.02198,-16.06999 17.847,-23.953 27.85301,-30.018 10.00598,-6.06401 27.89599,-9.40901 40.93399,-6.675 z"
         id="svg_1"
         inkscape:connector-curvature="0"
         style="fill:url(#linearGradient6013);fill-opacity:1;stroke:url(#linearGradient6021);stroke-width:7.238554;stroke-miterlimit:4;stroke-dasharray:none;stroke-opacity:1" />
      <path
         d="m 143.645,312.52701 c 0,0 20.082,12.13501 45.31801,8.806 0,0 2.685,3.759 4.94,3.43701 0,0 2.041,-1.98502 1.82599,-5.34201 0,0 29.85401,-9.58801 29.10301,-38.90201 0,0 5.799,6.33801 12.24199,10.526 6.443,4.18799 8.16201,11.70502 7.41001,18.68601 -0.752,6.98099 -1.612,20.83001 -15.25,29.74402 -13.638,8.914 -27.42201,10.81997 -35.86701,10.81997 -15.78601,0 -34.688,-16.514 -49.722,-37.77499 z"
         id="svg_2"
         inkscape:connector-curvature="0"
         style="fill:#eeeeec;stroke:#231f20;stroke-width:0" />
      <path
         d="m 193.54201,354.582 c 0,0 23.001,0.50101 41.615,-14.22 0,0 2.802,1.30499 4.454,-0.03 0,0 0.68699,-2.561 -1.086,-5.13901 0,0 19.88801,-20.31299 5.306,-43.36099 0,0 7.246,0.685 14.28801,1.97601 5.02399,0.92099 12.01199,6.30698 14.81198,10.33899 3.72501,5.36499 8.64502,17.404 1.978,31.043 -6.66498,13.63999 -16.789,21.75 -23.54999,25.78699 -12.63701,7.54602 -35.64401,3.39502 -57.817,-6.39499 z"
         id="svg_3"
         inkscape:connector-curvature="0"
         style="fill:#f55100;fill-opacity:1;stroke:#231f20;stroke-width:0" />
      <path
         d="m 254.129,362.298 c 0,0 17.90301,-8.82699 25.29501,-28.80999 0,0 3.78299,-0.555 4.426,-2.349 0,0 -0.65201,-2.271 -3.18201,-3.396 0,0 5.79501,-24.83801 -15.85901,-35.48801 0,0 5.82001,-2.89798 11.76501,-5.23898 4.241,-1.67102 12.021,-0.87201 15.99701,0.875 5.293,2.323 14.555,9.15997 15.74399,22.67999 1.19101,13.521 -2.781,24.46799 -6.06702,30.72901 C 296.10599,353.00299 275.47,359.28101 254.129,362.298 Z"
         id="svg_4"
         inkscape:connector-curvature="0"
         style="fill:#eeeeec;stroke:#231f20;stroke-width:0" />
      <path
         d="m 306.54401,342.491 c 0,0 8.117,-14.685 5.488,-33.319 0,0 2.366,-1.73899 2.172,-3.39801 0,0 -0.992,-1.50699 -3.41599,-1.404 0,0 -7.21002,-21.91598 -28.36801,-21.83599 0,0 3.79099,-6.141 7.54599,-10.29599 2.67902,-2.965 10.25901,-4.279 14.06302,-4.45801 5.06098,-0.23801 16.43198,2.59399 22.638,12.746 6.20798,10.15201 7.56998,19.93301 7.43198,26.13101 -0.258,11.58298 -11.97501,25.14398 -27.55499,35.83399 z"
         id="svg_5"
         inkscape:connector-curvature="0"
         style="fill:#f55100;fill-opacity:1;stroke:#231f20;stroke-width:0" />
      <path
         d="m 337.18301,302.41 c 0,0 -1.18801,-15.72201 -11.97601,-28.522 0,0 -0.022,-0.75601 -0.68298,-2.056 0,0 -1.051,-1.104 -2.525,-0.975 0,0 -15.79202,-13.10801 -31.69702,-3.04999 0,0 -0.046,-6.41699 0.819,-11.323 0.61801,-3.50101 5.70902,-8.07401 8.49002,-10.007 3.69999,-2.57001 13.60801,-5.81101 23.08298,-1.09401 9.47702,4.718 15.125,11.44299 17.952,16.17999 5.281,8.85101 3.225,25.42801 -3.46298,40.84701 z"
         id="svg_6"
         inkscape:connector-curvature="0"
         style="fill:#eeeeec;stroke:#231f20;stroke-width:0" />
      <path
         d="m 343.04001,258.00601 c 0,0 -7.13501,-12.766 -21.28601,-18.53599 0,0 -0.314,-0.63001 -1.38199,-1.42202 0,0 -1.32199,-0.43899 -2.52399,0.36301 0,0 -18.52401,-3.675 -28.12002,12.33701 0,0 -2.17701,-4.20801 -3.374,-8.76901 -1.418,-5.40101 1.36502,-10.74599 2.97602,-13.69201 2.14199,-3.91999 9.31298,-8.85199 19.20099,-9.31498 9.89001,-0.461 15.832,2.11699 20.078,4.802 7.935,5.01498 14.10599,18.01498 14.431,34.23199 z"
         id="svg_7"
         inkscape:connector-curvature="0"
         style="fill:#f55100;fill-opacity:1;stroke:#231f20;stroke-width:0" />
      <path
         d="m 328.18701,219.382 c 0,0 -11.68399,-6.64801 -25.70599,-4.751 0,0 -0.54401,-0.345 -1.771,-0.47901 0,0 -1.263,0.25601 -1.85,1.41301 0,0 -16.53901,5.47701 -16.72001,22.137 0,0 -3.71301,-2.26999 -6.80499,-5.251 -3.66302,-3.531 -3.93802,-8.903 -4.02902,-11.901 -0.121,-3.98401 3.30801,-11.007 11.00101,-15.802 7.695,-4.794 13.655,-5.47101 18.30999,-5.306 8.697,0.31 19.72001,7.573 27.57001,19.94 z"
         id="svg_8"
         inkscape:connector-curvature="0"
         style="fill:#eeeeec;stroke:#231f20;stroke-width:0" />
      <path
         d="m 299.048,197.78101 c 0,0 -12.24899,-0.174 -22.52099,7.568 0,0 -0.586,-0.036 -1.61902,0.39901 0,0 -0.88699,0.76699 -0.832,1.957 0,0 -10.66098,11.73799 -3.32999,25.22599 0,0 -3.96301,-0.181 -7.754,-1.209 -4.48901,-1.221 -7.117,-5.423 -8.535,-7.796 -1.883,-3.15199 -2.31301,-10.323 1.63699,-17.59399 3.953,-7.26801 8.37702,-10.45301 12.14301,-12.38302 7.03601,-3.60301 19.03799,-2.64199 30.811,3.83201 z"
         id="svg_9"
         inkscape:connector-curvature="0"
         style="fill:#f55100;fill-opacity:1;stroke:#231f20;stroke-width:0" />
      <path
         d="m 263.215,194.366 c 0,0 -5.49201,4.76201 -10.874,14.93899 0,0 -0.38901,0.231 -0.905,1.153 0,0 -0.349,0.72402 -0.169,1.70801 0,0 -4.055,13.705 7.651,22.56599 0,0 -3.38699,1.239 -6.98,1.70002 -4.25599,0.54299 -8.19101,-2.097 -10.35701,-3.61101 -2.87799,-2.012 -5.55198,-7.444 -5.25799,-15 0.29699,-7.553 1.861,-9.927 4.21,-12.888 4.389,-5.53101 10.39499,-9.02001 22.682,-10.567 z"
         id="svg_10"
         inkscape:connector-curvature="0"
         style="fill:#eeeeec;stroke:#231f20;stroke-width:0" />
      <path
         d="m 235.80499,207.909 c 0,0 -2.28599,5.89599 -2.015,15.91501 0,0 -0.21,0.33599 -0.209,1.25599 0,0 0.046,0.69699 0.641,1.381 0,0 2.956,12.188 16.492,14.22501 0,0 -2.18401,2.332 -4.88899,4.153 -3.207,2.15199 -7.60201,1.72899 -10.05001,1.44799 -3.252,-0.373 -7.897,-3.458 -11.102,-9.38501 -3.201,-5.92599 -3.01399,-8.38899 -2.45799,-11.62199 1.042,-6.04199 4.32499,-11.175 13.58999,-17.371 z"
         id="svg_11"
         inkscape:connector-curvature="0"
         style="fill:#f55100;fill-opacity:1;stroke:#231f20;stroke-width:0" />
      <path
         d="m 218.893,231.129 c 0,0 0.88701,5.376 5.528,12.655 0,0 -0.01,0.343 0.39801,1.02 0,0 0.344,0.495 1.09501,0.735 0,0 7.625,7.687 18.735,3.15601 0,0 0.025,3.33099 -1.20902,5.88199 -1.46499,3.01999 -4.74899,3.78701 -7.57599,4.91501 -2.66501,1.06298 -7.48601,0.96701 -12.52701,-1.982 -5.037,-2.949 -5.987,-4.854 -7,-7.48901 -1.88999,-4.929 -1.688,-10.18399 2.55601,-18.892 z"
         id="svg_12"
         inkscape:connector-curvature="0"
         style="fill:#eeeeec;stroke:#231f20;stroke-width:0" />
      <path
         d="m 217.14799,256.20099 c 0,0 3.06801,3.85901 10.02901,7.40799 0,0 0.14099,0.27902 0.769,0.62002 0,0 0.49699,0.22699 1.214,0.052 0,0 9.571,2.42001 16.653,-6.61399 0,0 1.474,2.646 1.581,5.28299 0.123,3.12802 -2.22,5.34201 -4.03301,7.62 -1.709,2.14901 -5.683,4.42502 -11.07998,4.526 -5.39402,0.104 -7,-0.95398 -8.97502,-2.564 -3.68999,-3.01397 -5.81798,-7.30798 -6.158,-16.33099 z"
         id="svg_13"
         inkscape:connector-curvature="0"
         style="fill:#f55100;fill-opacity:1;stroke:#231f20;stroke-width:0" />
      <path
         d="m 250.408,264.633 c 0,0 -1.63101,15.89001 -22.475,12.80899 0,0 8.09601,11.05801 20.90401,5.80102 0,-0.001 13.35199,-9.125 1.57099,-18.61002 z"
         id="svg_14"
         inkscape:connector-curvature="0"
         style="fill:#eeeeec;stroke:#231f20;stroke-width:0" />
      <path
         d="m 257.035,267.75699 c 0,0 7.37601,12.01999 -10.117,20.64599 0,0 11.53799,3.47901 18.41199,-6.85299 0,0.001 5.79101,-13.224 -8.29499,-13.793 z"
         id="svg_15"
         inkscape:connector-curvature="0"
         style="fill:#f55100;fill-opacity:1;stroke:#231f20;stroke-width:0" />
      <path
         d="m 264.98801,267.64999 c 0,0 10.39901,6.39099 -0.94001,20.54001 0,0 11.46802,-1.307 12.33802,-12.742 -3e-5,0 0.42898,-13.26001 -11.39801,-7.79801 z"
         id="svg_16"
         inkscape:connector-curvature="0"
         style="fill:#eeeeec;stroke:#231f20;stroke-width:0" />
      <path
         d="m 269.59399,262.142 c 0,0 12.164,1.02099 8.413,18.76199 0,0 9.50601,-7.21298 4.966,-16.25098 -4.539,-9.039 -11.668,-4.501 -13.379,-2.51101 z"
         id="svg_17"
         inkscape:connector-curvature="0"
         style="fill:#f55100;fill-opacity:1;stroke:#231f20;stroke-width:0" />
      <path
         d="m 271.349,257.995 c 0,0 9.44501,-4.779 15.06601,9.42599 0,0 3.59598,-9.38501 -4.021,-13.70399 -7.617,-4.321 -10.725,2.102 -11.04501,4.278 z"
         id="svg_18"
         inkscape:connector-curvature="0"
         style="fill:#eeeeec;stroke:#231f20;stroke-width:0" />
      <path
         d="m 271.01999,252.632 c 0,0 5.51599,-8.02301 16.31698,0.963 0,0 -1.237,-9.16 -9.28997,-9.287 -8.05301,-0.129 -7.72901,6.42599 -7.02701,8.324 z"
         id="svg_19"
         inkscape:connector-curvature="0"
         style="fill:#f55100;fill-opacity:1;stroke:#231f20;stroke-width:0" />
      <path
         d="m 268.052,248.22099 c 0,0 0.775,-8.434 12.79401,-6.20601 0,0 -4.83301,-6.42698 -10.99902,-3.099 -6.16599,3.32502 -3.13398,8.16302 -1.79499,9.30501 z"
         id="svg_20"
         inkscape:connector-curvature="0"
         style="fill:#eeeeec;stroke:#231f20;stroke-width:0" />
      <path
         d="m 262.72601,246.14101 c 0,0 -2.80801,-6.784 7.31299,-9.926 0,0 -6.30298,-2.98 -9.69,2.063 -3.38998,5.03798 0.88901,7.52698 2.37701,7.863 z"
         id="svg_21"
         inkscape:connector-curvature="0"
         style="fill:#f55100;fill-opacity:1;stroke:#231f20;stroke-width:0" />
      <path
         d="m 259.591,247.783 c 0,0 -5.906,-2.115 -2.08899,-10.32501 0,0 -5.50201,2.28002 -4.25302,7.319 1.24501,5.03601 5.276,3.75501 6.34201,3.00601 z"
         id="svg_22"
         inkscape:connector-curvature="0"
         style="fill:#eeeeec;stroke:#231f20;stroke-width:0" />
      <path
         d="m 256.328,250.43201 c 0,0 -5.238,1.14399 -6.192,-6.53701 0,0 -2.95399,4.14701 0.234,7.23201 3.186,3.08599 5.52501,0.32999 5.958,-0.695 z"
         id="svg_23"
         inkscape:connector-curvature="0"
         style="fill:#f55100;fill-opacity:1;stroke:#231f20;stroke-width:0" />
      <path
         d="m 255.353,254.311 c 0,0 -3.25,3.349 -7.63601,-1.76499 0,0 -0.14799,4.43098 3.64901,5.13499 3.793,0.707 4.16501,-2.418 3.987,-3.37 z"
         id="svg_24"
         inkscape:connector-curvature="0"
         style="fill:#eeeeec;stroke:#231f20;stroke-width:0" />
      <path
         d="m 256.64301,257.96301 c 0,0 -0.77401,3.88901 -6.262,2.263 0,0 1.93801,3.23001 4.972,1.98001 3.032,-1.24502 1.85698,-3.64502 1.29,-4.24301 z"
         id="svg_25"
         inkscape:connector-curvature="0"
         style="fill:#f55100;fill-opacity:1;stroke:#231f20;stroke-width:0" />
      <path
         d="m 259.078,260.18301 c 0,0 1.55301,2.58301 -2.36401,4.47501 0,0 2.741,0.82599 3.80801,-1.42902 1.069,-2.25 -0.82,-3 -1.444,-3.04599 z"
         id="svg_26"
         inkscape:connector-curvature="0"
         style="fill:#eeeeec;stroke:#231f20;stroke-width:0" />
    </g>
    <path
       style="fill:#ffffff;fill-opacity:0;stroke:none;stroke-width:1px;stroke-linecap:butt;stroke-linejoin:miter;stroke-opacity:1"
       d="m 39.327133,0.29834999 c 1.200315,1.30754031 2.400589,2.61503601 3.859055,5.48058211 1.458466,2.8655462 3.175249,7.2895849 0.964693,10.4548879 -2.210557,3.165303 -8.348558,5.071308 -12.821694,7.875324 -4.473137,2.804015 -7.276756,6.503725 -8.732866,10.355352 -1.456109,3.851627 -1.562205,7.851409 -4.142244,10.75096 C 15.874037,48.115006 10.818734,49.91303 8.2662411,48.1615 5.7137486,46.409969 5.664943,41.109549 5.9492294,35.569968 6.2335159,30.030388 6.8508317,24.251703 10.353325,18.543039 13.855819,12.834375 20.24044,7.1984105 25.550286,4.1697094 30.860133,1.1410083 35.093089,0.71973333 39.327133,0.29834999 Z"
       id="path5755"
       inkscape:connector-curvature="0"
       inkscape:path-effect="#path-effect5757"
       inkscape:original-d="m 39.327133,0.29834999 c 0,0 2.40163,2.61408041 3.600945,3.92262091 1.717783,4.4230392 3.434566,8.8470781 5.150348,13.2721161 -6.138297,1.905407 -12.276298,3.811412 -18.417892,5.719222 -2.80433,3.700967 -5.60795,7.400676 -8.414213,11.103555 -0.105136,4.000285 -0.211232,8.000067 -0.318348,12.001604 C 15.873834,48.114434 10.81853,49.912458 5.7625631,51.711363 5.7147577,46.40996 5.6659521,41.10954 5.6161419,35.809618 6.234399,30.030482 6.8517147,24.251797 7.4681457,18.473034 13.855761,12.834309 20.240382,7.1983447 26.625,1.5625 30.860044,1.1401167 39.327133,0.29834999 39.327133,0.29834999 Z"
       sodipodi:nodetypes="ccccccccccc"
       transform="rotate(21.331049,36.017889,44.457531)" />
    <path
       style="fill:#000000;fill-opacity:0.14814818;stroke:none;stroke-width:1px;stroke-linecap:butt;stroke-linejoin:miter;stroke-opacity:1"
       d="m 26.244647,42.63146 c -0.437328,-0.01865 -1.007703,-2.242724 -0.961579,-4.09553 0.04612,-1.852807 0.708026,-3.333835 1.397887,-4.548748 0.689861,-1.214912 1.407374,-2.163798 2.423785,-3.075669 1.016412,-0.911871 2.331413,-1.787076 4.03058,-2.432743 1.699167,-0.645667 3.7825,-1.062334 5.032587,-1.026534 1.250088,0.0358 1.668153,0.523919 1.40825,1.278649 -0.259903,0.754729 -1.198022,1.776177 -2.204642,2.480923 -1.006619,0.704746 -2.076377,1.089028 -3.188103,1.449206 -1.111726,0.360177 -2.254007,0.692477 -3.239402,1.192701 -0.985396,0.500224 -1.8075,1.166233 -2.391078,1.934654 -0.583579,0.768422 -0.921814,1.625269 -1.244625,3.151854 -0.32281,1.526586 -0.626333,3.709887 -1.06366,3.691237 z"
       id="path5783"
       inkscape:connector-curvature="0"
       inkscape:path-effect="#path-effect5785"
       inkscape:original-d="m 26.377872,44.83758 c -0.569374,-2.225072 -1.139749,-4.449146 -1.711124,-6.672221 0.662904,-1.48203 1.324807,-2.963058 1.985711,-4.443087 0.718512,-0.949885 1.436025,-1.898771 2.152537,-2.846656 C 30.120998,29.999411 31.435999,29.124205 32.75,28.25 34.834333,27.832333 36.917666,27.415667 39,27 c 0.419066,0.487119 0.837131,0.975238 1.254197,1.464357 -0.937899,1.021298 -1.876018,2.042746 -2.816697,3.066893 -1.072808,0.384737 -2.142566,0.769019 -3.21875,1.15625 -1.147254,0.333038 -2.289535,0.665337 -3.4375,1 -0.822729,0.666325 -1.644833,1.332333 -2.46875,2 -0.541019,0.791182 -0.680858,1.726345 -1.022787,2.591017 -0.303372,2.188409 -0.606894,4.37171 -0.911841,6.559063 z"
       sodipodi:nodetypes="ssscccccccccs"
       transform="rotate(21.331049,36.017889,44.457531)" />
  </g>
</svg>
