<?xml version="1.0" encoding="UTF-8" standalone="no"?>
<svg
   xmlns:dc="http://purl.org/dc/elements/1.1/"
   xmlns:cc="http://creativecommons.org/ns#"
   xmlns:rdf="http://www.w3.org/1999/02/22-rdf-syntax-ns#"
   xmlns:svg="http://www.w3.org/2000/svg"
   xmlns="http://www.w3.org/2000/svg"
   xmlns:sodipodi="http://sodipodi.sourceforge.net/DTD/sodipodi-0.dtd"
   xmlns:inkscape="http://www.inkscape.org/namespaces/inkscape"
   viewBox="0 0 16 16"
   version="1.1"
   id="svg6"
   sodipodi:docname="search.svg"
   inkscape:version="0.92.0 r">
  <metadata
     id="metadata10">
    <rdf:RDF>
      <cc:Work
         rdf:about="">
        <dc:format>image/svg+xml</dc:format>
        <dc:type
           rdf:resource="http://purl.org/dc/dcmitype/StillImage" />
      </cc:Work>
    </rdf:RDF>
  </metadata>
  <sodipodi:namedview
     pagecolor="#ffffff"
     bordercolor="#666666"
     borderopacity="1"
     objecttolerance="10"
     gridtolerance="10"
     guidetolerance="10"
     inkscape:pageopacity="0"
     inkscape:pageshadow="2"
     inkscape:window-width="1366"
     inkscape:window-height="699"
     id="namedview8"
     showgrid="false"
     inkscape:zoom="14.75"
     inkscape:cx="5.6271186"
     inkscape:cy="8"
     inkscape:window-x="0"
     inkscape:window-y="0"
     inkscape:window-maximized="1"
     inkscape:current-layer="svg6" />
  <defs
     id="defs3051">
    <style
       type="text/css"
       id="current-color-scheme">
      .ColorScheme-Text {
        color:#4d4d4d;
      }
      </style>
  </defs>
  <path
     style="color:#4d4d4d;fill:#2ca05a;fill-opacity:1;stroke:none;stroke-width:1.32757699"
     d="m 6.0079948,0.03389831 c -3.3096495,0 -5.97409649,2.66842979 -5.97409649,5.97409649 0,3.3096494 2.66842979,5.9740962 5.97409649,5.9740962 1.4120682,0 2.6901236,-0.506071 3.710474,-1.319798 l 5.3077152,5.307714 0.938638,-0.938638 -5.307715,-5.3077144 c 0.817324,-1.0219424 1.324984,-2.3013416 1.324984,-3.7156598 0,-3.3096495 -2.6684295,-5.97409649 -5.9740962,-5.97409649 z m 0,1.32757699 c 2.5741718,0 4.6465192,2.0723477 4.6465192,4.6465195 0,2.5741718 -2.0723474,4.6465192 -4.6465192,4.6465192 -2.5741718,0 -4.6465195,-2.0723474 -4.6465195,-4.6465192 0,-2.5741718 2.0723477,-4.6465195 4.6465195,-4.6465195 z"
     class="ColorScheme-Text"
     id="path4"
     inkscape:connector-curvature="0" />
</svg>
